<?xml version="1.0" encoding="utf-8"?>
<!-- Generator: Adobe Illustrator 22.0.1, SVG Export Plug-In . SVG Version: 6.00 Build 0)  -->
<svg version="1.1" xmlns="http://www.w3.org/2000/svg" xmlns:xlink="http://www.w3.org/1999/xlink" x="0px" y="0px"
	 viewBox="0 0 2500 2500" style="enable-background:new 0 0 2500 2500;" xml:space="preserve">
<style type="text/css">
	.st0{fill:#202C46;}
	.st1{fill-rule:evenodd;clip-rule:evenodd;fill:#FAC3AF;}
	.st2{fill-rule:evenodd;clip-rule:evenodd;fill:#765035;}
	.st3{fill-rule:evenodd;clip-rule:evenodd;fill:#402A1E;}
	.st4{fill-rule:evenodd;clip-rule:evenodd;fill:#FFFFFF;}
	.st5{fill-rule:evenodd;clip-rule:evenodd;fill:#A7775A;}
	.st6{fill:#C67D58;}
	.st7{fill:#A7775A;}
	.st8{fill:#402A1E;}
	.st9{fill-rule:evenodd;clip-rule:evenodd;fill:#ED9D8F;}
	.st10{fill-rule:evenodd;clip-rule:evenodd;fill:#8A563A;}
	.st11{fill-rule:evenodd;clip-rule:evenodd;fill:#FDD8CE;}
	.st12{opacity:0.5;}
	.st13{fill-rule:evenodd;clip-rule:evenodd;fill:#FBCCCC;}
	.st14{fill-rule:evenodd;clip-rule:evenodd;fill:#1D253D;}
	.st15{fill-rule:evenodd;clip-rule:evenodd;fill:#3F3B56;}
	.st16{fill:#FFFFFF;}
	.st17{fill:#B8494B;}
	.st18{fill:#321200;}
	.st19{fill:#020E28;}
	.st20{fill:#09001A;}
	.st21{fill:#647F53;}
	.st22{fill:#02041A;}
</style>
<g id="Layer_3">
	<path class="st0" d="M2060,2501c-426.9,0-853.8,0-1280.6,0c-0.4-2,0.5-3.7,1.3-5.5c8.2-17.7,16.2-35.5,24.6-53.1
		c26.5-55.1,55.1-109,84.4-162.6c44.5-81,90.8-161,138.4-240.2c12.7-21.1,25.5-42.1,38.3-63.2c1-1.6,2.1-3.2,3.1-4.8
		c0.8-1.1,2.2-1.7,3.3-1.3c2.4,0.8,4.8,1.7,7.2,2.6c7.2,2.7,14.6,4.7,22.3,5.5c15.7,1.6,31.3,0.7,46.7-2.8c14.7-3.3,28.9-8,43-13.4
		c23.9-9.2,47.1-19.9,70.2-31c40.1-19.1,80.1-38.5,120.3-57.4c101.8-47.9,207.4-85.3,316.9-111.2c9.3-2.2,18.7-4.2,28.1-6.2
		c2-0.4,3.8-0.1,5.3,1.4c2,2.1,4,4.1,6,6.2c18.6,19.8,36.8,40.1,54.6,60.7c36.5,42.1,71.5,85.3,104.3,130.4
		c21.3,29.3,41.4,59.3,59.7,90.5c15.8,26.8,28.9,54.8,39.5,84.1c17.2,47.7,28.9,96.7,38.2,146.4c3.2,17,6.1,34,8.4,51.1
		c1.8,13.3,3.6,26.6,5.4,39.9c0.9,6.7,1.6,13.3,2.3,20c1.2,10.8,2.3,21.6,3.3,32.4c0.9,9.9,1.7,19.8,2.4,29.6
		c1.1,15.6,2.1,31.3,3.1,46.9C2060.1,2497.8,2060,2499.4,2060,2501z"/>
	<path class="st1" d="M1469.6,1452.4c-21.9,17.7-42.7,36.8-62.9,56.4c-49.2,47.7-95.9,97.8-139.5,150.7
		c-9.8,11.8-19.6,23.7-29.6,35.3c-6.3,7.3-12.8,14.3-19.6,21.1c-15.5,15.7-33.6,27.5-53.9,36.1c-20.7,8.8-42.2,14.7-64.5,17.9
		c-13.6,2-27.3,3.6-40.9,5c-11.8,1.2-23.6,1.6-35.4,2.6c-22,1.9-44.1,1.7-66.2,2.8c-9.6,0.5-19.2,0.6-28.8,0.7
		c-23,0.1-46.1,0.4-69.1,0c-29.1-0.4-58.2-1.3-87.3-2.1c-8.3-0.2-16.6-1-24.9-1.6c-3.9-0.2-7.5-1.6-11.1-2.9c-6-2.1-11.8-5-17.3-8.2
		c-22.7-12.9-43-28.8-61.1-47.6c-5.1-5.3-9.7-11.1-14.1-17c-9.2-12.4-12.5-26.5-11.4-41.6c1-14,3.1-28,6-41.7
		c3.7-17.2,7.4-34.4,11.2-51.5c3.4-15.3,6.5-30.7,8.3-46.2c1.3-11.1,1.7-22.3,2.1-33.5c0.3-10.5,0.1-21.1,0.1-31.7
		c0-2.6,0-5.1,0.1-7.7c0.1-1.6,1.4-2.8,3.1-3c2.5-0.3,5.1-0.6,7.6-0.7c16.7-0.5,33.2,0.6,49.5,4.5c5.6,1.3,11,3.3,16.4,5.3
		c16.2,6.1,32.8,10.8,49.9,13.6c9.1,1.5,28.7,0.1,20.1-0.4c-23.5-1.4-46-7.2-68-15.3c-7.8-2.9-15.6-5.6-23.9-7
		c-9.8-1.7-19.6-3.2-29.5-3.2c-7.4,0-14.7,0.1-22.1,0.1c-1.8,0-3.2-1.1-3.4-2.7c-0.2-1.6-0.4-3.2-0.5-4.8c-0.2-4.2-0.4-8.3-0.4-12.5
		c-0.1-25.3-1.9-50.5-2.8-75.8c-0.5-14.4-1.6-28.8-2.3-43.1c-0.1-1.3,0.1-2.5,0.2-3.8c0-0.8,1.4-1.5,2.2-1.2
		c3.3,1.2,6.5,2.5,9.8,3.7c0.2,0.1,0.8-0.1,0.8-0.3c0.1-0.5,0.1-1.3-0.1-1.5c-1.4-0.8-2.8-1.5-4.3-2.2c-4.3-2-8.7-4-13-6.1
		c-8.3-4.1-16.6-8.3-24.4-13.3c-5.1-3.3-10.1-6.8-14.6-10.9c-7.8-7.1-13-15.8-15.2-26.1c-3.1-14.8-4.6-29.7-4.3-44.8
		c0.2-7.2,2-13.9,4.9-20.4c2.7-5.8,6-11.3,9.7-16.5c5.2-7.3,10.5-14.5,15.9-21.6c41.7-54.3,82.4-109.4,123.2-164.3
		c1.5-2,2.8-4.2,4.2-6.4c0.1-0.2,0-0.8-0.1-0.8c-0.5-0.1-1.4-0.4-1.5-0.1c-2,2.5-4,5-5.9,7.6c-17,22.8-34,45.7-51,68.6
		c-1.7,2.3-3.6,4.4-5.5,6.6c-0.5,0.5-2.2,0.1-2.5-0.6c-0.2-0.6-0.5-1.2-0.6-1.8c-3.4-17.6-6.3-35.2-8.4-53
		c-1.9-16.9-3.6-33.7-3.6-50.7c0-2.2,0.2-4.5,0.5-6.7c0.1-0.5,11.2-64.1,11.9-66.2c4.1-11.8,8.8-23.3,13.9-34.7
		c8.2-18.4,17.3-36.4,27.3-53.9c2.2-3.9,4.2-7.9,6.1-12c11.5-24,24.6-47.1,40.1-68.7c10.5-14.6,21.9-28.4,34.7-40.9
		c6.4-6.3,13.1-12.2,20.3-17.5c2.1-1.5,4.2-2.9,6.3-4.3c1.4-0.9,3-1.2,4.6-0.8c2.8,0.7,5.5,1.6,8.3,2.5
		c36.1,11.4,70.5,26.6,103.9,44.3c7.1,3.7,14.1,7.6,21,11.5c27.6,15.4,57,25.9,87.9,31.9c15.1,2.9,30.3,4.9,45.6,6
		c14.1,1,28.1,1.5,42.2,0.9c9.9-0.4,19.8-1.3,29.7-1.9c1.3-0.1,2.6-0.3,3.8-0.1c0.8,0.1,1.9,0.7,2.2,1.4c0.8,1.7,1.3,3.6,1.8,5.4
		c10.2,34.6,28.6,64,54.6,88.9c3.2,3.1,6.6,6.1,9.8,9.2c28.4,27.6,52.9,58.2,73.5,91.9c5.3,8.7,10.2,17.7,14.8,26.9
		c3.4,6.9,5.9,14.1,7.5,21.7c2.8,13.2,4.2,26.5,5.7,39.9c1.6,14.6,1.7,29.4,3,44c0.4,4.5,0.4,8.9,0.5,13.4c0.2,15,0.4,30.1,0.6,45.1
		c0,2.9,0.2,5.7,0.2,8.3c1.9,2.6,4.6,2.9,6.9,3.7c11.2,3.7,22.5,7.2,33.8,10.8c17.7,5.6,35.3,11.3,53,16.9c1.8,0.6,3.7,1.1,5.5,1.6
		c1.7,0.4,3-0.4,3.6-2.2c0.7-2.1,1.4-4.3,2.1-6.4c9.4-27.9,23.1-53.4,42.2-75.8c19.7-23.1,43.4-40.4,71.9-51.1
		c13.9-5.2,28.3-7.9,43.2-7c17.9,1.1,33.5,7.7,46.9,19.5c7.3,6.4,13.2,13.9,18,22.3c8,14.1,12.4,29.3,14.3,45.4
		c1.4,12.5,1,25-0.7,37.3c-1.8,13-5.3,25.7-10,37.9c-3.6,9.3-7.7,18.3-12.7,26.8c-15.6,26.8-31.7,53.3-49.5,78.8
		c-4.6,6.6-9.3,13-14.1,19.4c-6.2,8.2-12.8,16-20.3,22.5c-0.9,2.2-0.5,4.2,0,6c1.8,6.9,2.3,13.9,2.8,20.9
		c0.8,12.2-0.8,24.3-5.1,35.8c-5.1,13.8-14,24.3-27.1,31.1c-12.4,6.4-25.5,10.1-39.6,9.6c-16.4-0.6-28.5-8.2-36.9-22.2
		c-1.3-2.2-1.8-4.8-3.8-6.5c-0.2-0.1-0.6-0.1-0.8,0.1c-0.2,0.1-0.6,0.5-0.5,0.7c6.1,16.3,17.4,26.3,34.6,29.8c8,1.6,16,0.9,23.8-0.5
		c8.2-1.5,16.1-4.1,23.6-7.9c5.7-2.9,10.9-6.6,15.5-11.2c1.3-1.3,2.8-2.6,4.2-3.9c1,0.7,2.8-0.7,3.2,0c1.5,2.1,2.8,4.3,4.1,6.5
		c12.7,21.1,24.4,44.2,37.2,65.2c3.4,5.6,5.5,11.4,6.6,17.8c8.7,48.9,21.5,96.7,39,143.2c6.4,17.1,13.7,33.8,22,50
		c10.1,19.7,21.5,38.5,35.5,55.7c1.2,1.5,2.7,2.8,2.3,5.2c-2.4,0.7-4.8,1.5-7.3,2c-49.5,10.4-98,24.2-146.1,39.8
		c-69.1,22.4-136.4,49.4-201.9,80.8c-37.5,17.9-75,35.9-112.5,53.8c-21.4,10.2-42.8,20.1-64.9,28.7c-13.4,5.2-27,10-41,13.4
		c-12.8,3.1-25.7,5.1-38.9,4.8c-12.9-0.3-25.3-3.1-37.3-7.9c-1.5-0.6-2.9-1.3-3.7-3c1.2-3.9,2.6-7.8,3.6-11.8
		c3.5-14.1,4.1-28.4,2.8-42.9c-2.8-31.2-11.6-60.9-23.1-89.8c-4.6-11.6-9.9-22.9-14.8-34.3c-0.9-2-1.7-4.1-2.4-6.2
		c-0.1-0.4,0.3-1.2,0.8-1.5c0.5-0.3,1.2-0.5,1.8-0.5c4.5-0.5,8.9-1,13.4-1.4c8.6-0.8,17.2-1.5,25.8-2.5c27.4-3.2,54.3-8.3,80-18.9
		c22.8-9.4,43.1-22.3,60.4-39.9c9-9.1,17.4-18.7,25.7-28.5c9.7-11.5,19.2-23.1,28.9-34.7c47.9-57.3,99-111.5,153.7-162.3
		c11.2-10.5,22.8-20.6,34.6-30.5C1473.3,1452.6,1476.6,1446.8,1469.6,1452.4z"/>
	<path class="st2" d="M1129.4,731.4c-7.1-0.2-15.4-0.2-23.7-0.6c-10.5-0.5-21-1.8-31.5-3.3c-12.7-1.8-25.2-4.5-37.5-7.7
		c-23.9-6.3-46.7-15.5-68.2-27.7c-25.6-14.5-51.9-27.6-79.2-38.8c-24.8-10.3-50.2-18.9-76.5-24.9c-14-3.2-28.2-5.6-42.5-7.2
		c-12.4-1.4-24.9-1.8-37.4-1.4c-22.9,0.6-45.1,4.8-66.4,13.2c-11.3,4.5-22.1,10.1-32.2,16.9c-1.8,1.2-3.8,2.4-5.7,3.4
		c-0.4,0.2-1.4-0.1-1.7-0.5c-1-1.2-2.1-2.5-2.7-3.9c-3.2-7-5.1-14.5-6-22.1c-1-7.9-1.2-15.9-0.6-23.9c1.7-23.2,10.6-43.3,26.5-60.2
		c7.9-8.5,17.1-15.4,27.1-21.2c13.1-7.6,27-13.1,41.6-17.1c13.6-3.8,27.4-6.4,41.3-8.1c18.1-2.2,36.3-3.5,54.5-3.3
		c16,0.1,31.9,1.5,47.8,3.1c38.9,4.1,77,12.5,114.6,22.6c32.1,8.6,64,17.9,96,27c27.4,7.7,54.8,15.2,82.6,21.4
		c19,4.2,38.2,7.8,57.5,10.6c14.6,2.1,29.2,3.4,43.9,4.8c3.8,0.4,7.7,0.4,11.5,0.5c22.1,0.5,44.1,0.5,66.2-1.3
		c3.8-0.3,7.7-0.3,11.5-0.5c7-0.4,14-0.8,21.1-1.2c3.5-0.2,7-0.4,10.5-0.6c7.3-0.5,14.7-0.9,22-1.4c3.5-0.2,7-0.4,10.5-0.6
		c6.4-0.4,12.8-0.8,19.1-1.3c1-0.1,1.9-0.2,2.9-0.2c15.3-0.8,30.7-1.7,46-2.5c2.6-0.1,5.1-0.2,7.7-0.4c30-2.1,60.1-2.5,90.2-1.3
		c25.7,1,52.7,4.9,77.1,13.3c1.8,0.6,1.7,1.5,3.5,2.3c0.2,0.1,0.6,0.6,0.5,0.8c-0.3,0.5-0.6,1.1-1,1.2c-2.8,0.6-5.6,1.2-8.5,1.4
		c-12.5,0.9-24.8,2.8-37.1,4.7c-15.5,2.4-30.8,5.4-46.1,8.8c-30.6,6.7-60.7,15.4-90.2,26c-24.4,8.8-48.1,19.1-71.2,30.8
		c-31.1,15.8-63.2,29.3-96.2,40.5c-26.7,9-53.8,16.3-81.5,21.5c-15.7,3-31.5,5.1-47.5,6.7C1158,730.8,1144.3,731,1129.4,731.4z"/>
	<path class="st2" d="M1480.8,391.6c-0.5,1.7,0.9,2.6-0.5,3.4c-8,4.6-18.8,9.2-26.9,13.6c-33.8,18.3-68.9,33.7-104.9,47.1
		c-44.7,16.6-90.4,29.7-137.1,39.5c-19.7,4.1-39.5,7.7-59.4,10.6c-12.6,1.9-25.4,3.2-38.1,4.6c-10.2,1.1-20.4,2-30.5,3
		c-0.6,0.1-1.3,0.1-1.9,0.2c-35.1,2.3-70.3,3-105.5,1.9c-4.8-0.1-9.6-0.9-14.2-2.1c-21-5.6-42.2-10.3-63.6-14.1
		c-16.4-2.9-32.8-5.2-49.4-6.8c-23-2.3-46-2.4-69-1.4c-9.6,0.4-19.1,1.8-28.6,2.7c-20.4,2-40.8,3.9-61.3,1.5
		c-3.8-0.4-7.6-0.7-11.5-1.1c-1.6-0.2-2.8-2.2-2.2-3.6c1.4-3.2,2.6-6.5,4.2-9.7c6.1-12.1,14.1-22.9,23.5-32.6
		c11.6-12,25-21.9,39.4-30.4c18-10.6,37.2-18.4,57.1-24.5c18-5.5,36.4-9.8,55.1-12.5c15.8-2.3,31.6-4.9,47.4-7
		c17.7-2.4,35.5-4.4,53.3-6.5c14.6-1.7,29.2-3.4,43.8-4.9c9.9-1,19.8-1.7,29.6-2.5c12.4-1,24.9-2,37.3-3c1-0.1,1.9-0.2,2.9-0.3
		c15-0.8,30-1.6,45-2.4c9.9-0.5,19.8-0.9,29.7-1.1c12.8-0.3,25.6-0.6,38.4-0.7c21.8-0.1,43.5-0.2,65.2,1.2c4.8,0.3,9.6,0.3,14.4,0.5
		c6.4,0.3,12.8,0.8,19.2,1.2c2.6,0.2,5.1,0.4,7.7,0.5c13.1,0.6,26.1,2,39.2,3.5c12.7,1.5,25.4,2.8,38.1,4.7
		c19,2.8,37.8,6.2,56.5,10.5c17.8,4,35.4,8.7,52.7,14.2c1.2,0.4,2.4,0.9,3.5,1.4C1479.9,390.6,1480.3,391.1,1480.8,391.6z"/>
	<path class="st3" d="M1588.3,1330.2c10.2-9.5,18.5-20,26.4-30.9c3.2-4.4,6.4-8.8,9.4-13.3c17-24.8,32.8-50.4,47.8-76.4
		c10.6-18.4,18.2-38,22.2-59c4.4-23.3,4.1-46.4-2.8-69.3c-3.6-11.7-8.8-22.6-16.2-32.4c-8.8-11.7-19.7-20.9-33.2-26.8
		c-1.2-0.5-2.3-1-3.5-1.5c-2.4-1.1-2.9-2.6-1.3-4.3c1.1-1.2,2.2-2.4,3.3-3.5c34.5-36.5,57.9-79.3,71.9-127.4
		c5.7-19.7,9.7-39.7,12.1-60.1c2.3-19.4,3.5-38.8,3.4-58.4c-0.1-17.9-1.3-35.8-3.2-53.6c-1.1-10.2-2.4-20.3-4-30.4
		c-4.4-27.8-10.6-55.2-19.1-82.1c-0.9-2.7-1.6-5.5-2.3-8.3c-0.3-1.2,0.7-2.7,1.9-2.9c0.9-0.1,1.9-0.4,2.8-0.3
		c10.2,0.4,20.4,0.8,30.5,2.6c14.8,2.7,27.9,9,39.5,18.5c5,4.1,9.5,8.5,13.8,13.3c8.4,9.3,15.6,19.4,22.2,30.1
		c3.7,6,6.3,12.6,8.6,19.2c4.1,12.1,7,24.6,9.5,37.1c3.1,15.4,5.2,30.9,7.2,46.4c1.1,8.6,1.8,17.2,2.6,25.8c1.1,11.5,2,22.9,3,34.4
		c0.1,1.6,0.2,3.2,0.3,4.8c1.3,25.2,2.5,50.5,2.8,75.7c0.3,20.8,0,41.6-0.7,62.4c-0.2,6.1-1,12.1-2,18.1c-0.5,3.1-1.5,6.2-2.7,9.2
		c-2.4,5.9-5,11.8-7.8,17.5c-7.7,15.8-16.2,31.2-25,46.4c-19.5,33.8-39.1,67.5-58.8,101.2c-18.5,31.8-37,63.5-54.5,95.9
		c-8.4,15.5-16.5,31-23.8,47.1c-11.6,25.7-20.1,52.5-26.8,79.9c-4.9,20.2-8.6,40.6-11.3,61.3c-1.7,13.6-2.7,27.4-4,41
		c-0.1,1.2-0.5,2.5-0.8,3.7c0,0.1-0.6,0.2-0.9,0.1c-0.5-0.3-1.1-0.6-1.5-1.1c-1.2-1.9-2.4-3.8-3.6-5.7c-11.8-19.7-25-39.5-36.8-59.2
		c-1-1.6-1.8-3.4-2.9-5c-1.6-2.4-0.5-4.5,1.1-7.1c5.5-8.9,8.4-18.7,9.6-28.9c1.3-10.2,1.1-20.4-0.4-30.6
		C1589.8,1339.3,1589.1,1335.2,1588.3,1330.2z"/>
	<path class="st2" d="M1643,580.3c-1.5-0.2-2.7-0.2-3.9-0.5c-6.8-1.6-13.6-3.5-20.5-5c-13.1-2.9-26.4-4.5-39.8-5.5
		c-16.9-1.2-33.9-1.9-50.8-1.3c-20.8,0.7-41.6,1.2-62.3,2.8c-3.5,0.3-7,0.4-10.5,0.6c-6.7,0.4-13.4,0.9-20.1,1.3
		c-1,0.1-1.9,0.2-2.9,0.2c-15,0.9-30,1.7-45,2.6c-15.6,0.9-31.3,2-46.9,2.9c-4.5,0.3-8.9,0.4-13.4,0.7c-8,0.4-16,0.8-24,1.2
		c-13.1,0.7-26.2,0.7-39.3,0c-7-0.4-14.1-0.7-21.1-1.3c-9.2-0.9-18.4-2.1-27.6-3.2c-12.4-1.4-24.6-3.6-36.9-5.9
		c-22-4.1-43.7-9.3-65.4-14.9c-32.2-8.3-64-17.8-95.9-26.9c-8.6-2.4-17.2-4.8-25.8-7.2c-1.2-0.3-2.4-0.9-2.4-2.8c1.3,0,2.6,0,3.8,0
		c22.7,0.7,45.4,0,68.1-0.9c13.4-0.5,26.8-1.4,40.2-3c8.6-1,17.2-1.7,25.8-2.6c6-0.6,12.1-1.4,18.1-2.2c25.3-3.7,50.5-7.9,75.5-13.4
		c44.4-9.8,87.9-22.4,130.4-38.3c37.5-14,74-30.1,109-49.4c8.1-4.5,16.1-9.2,24-14c2-1.2,4-1.8,6.3-0.9c26,9.3,51.1,20.3,74.4,35
		c10.3,6.5,20.1,13.7,29.1,21.9c8.6,7.8,15.8,16.6,21.6,26.7c12.1,21.3,21.2,43.7,25.9,67.7c2,10.1,3.2,20.2,2.9,30.5
		C1643.5,576.8,1643.2,578.4,1643,580.3z"/>
	<path class="st3" d="M1353.8,1038.5c3-1.3,6.5-2.9,10-4.3c32.5-13.5,64.1-28.8,94.7-46.3c39.5-22.6,76.7-48.6,110.6-79
		c36-32.2,67.3-68.4,92.5-109.6c17.9-29.3,32.2-60.3,42-93.3c3.5-12,6.3-24.1,8.6-36.4c0.2-1.2,0.6-2.4,0.9-3.8
		c0.7,0.6,1.4,0.9,1.5,1.4c0.7,2.1,1.4,4.3,1.7,6.5c1.8,12,3.8,24,5.3,36c1.1,8.9,1.9,17.8,2.4,26.8c1.1,20.8,1.4,41.6,0.2,62.3
		c-2.6,43.8-11.4,86.1-29,126.4c-13.8,31.7-32.5,60.1-56.2,85.3c-2,2.1-4,4.1-6.1,6.1c-0.9,0.9-2.2,1.3-3.5,1.1
		c-2.2-0.3-4.5-0.5-6.6-1c-12.5-2.6-24.8-1.2-37.1,1.7c-17,4.1-32.6,11.3-47.2,20.6c-18,11.4-33.3,25.8-46.4,42.6
		c-15.9,20.4-27.7,42.9-36.3,67.2c-0.7,2.1-1.4,4.3-2.1,6.4c-1,2.7-2,3.2-5.2,2.4c-1.2-0.3-2.5-0.7-3.7-1
		c-27.1-8.7-54.1-17.4-81.2-26.1c-2.1-0.7-4.2-1.5-6.3-2.2c-1.3-0.5-1.9-1.6-2-3c-0.1-1-0.2-1.9-0.2-2.9c0-26.2-1.3-52.4-2.3-78.6
		C1352.5,1042,1352.4,1040.4,1353.8,1038.5z"/>
	<path class="st2" d="M1676.8,590.2c4.5-0.2,8.9-0.5,13.4-0.6c3.8-0.1,4.9,0.7,6.2,4.6c1.1,3.3,2.1,6.7,3.2,10.1
		c4.1,12.8,7.1,25.9,10.5,38.8c1.9,7.3,1.1,14.6,0,21.9c-1.7,11.7-4.4,23.2-7.4,34.6c-1,3.8-2.8,7.1-5.4,10
		c-6.4,7.6-13.5,14.5-21,21c-10.6,9.2-21.9,17.6-33.7,25.3c-24.1,15.8-49.7,28.9-76.2,40.1c-33.6,14.3-68.2,25.4-103.5,34.5
		c-27.8,7.2-56,13.1-84.4,17.7c-6,1-12,2.1-17.9,3.1c-1.9,0.3-3.8,0.1-5.7,0.1c-0.8,0-1.2-0.6-1.1-1.3c0.1-0.9,0.2-1.9,0.5-2.8
		c18.3-54.9,44.7-105.2,83.1-148.8c29.8-33.7,64.7-60.8,105.3-80.3c17.3-8.3,35.3-15,54.1-19.1c4.7-1,9.4-1.9,14.1-2.5
		c13.3-1.6,26.6-3.8,40-4.6c8.6-0.6,17.2-1.4,25.8-2.2C1676.8,590,1676.8,590.1,1676.8,590.2z"/>
	<path class="st2" d="M1696.7,719c-2.6,7.1-5.3,14.6-8.4,21.9c-15.2,36.9-35.7,70.7-60.5,101.9c-28,35.3-60.3,66.1-96.1,93.4
		c-34.9,26.7-72.3,49.4-111.5,69.1c-20,10.1-40.3,19.4-61,27.8c-1.7,0.7-3.6,1.2-5.5,1.5c-0.4,0.1-1.3-0.5-1.4-1
		c-0.4-1.2-0.7-2.5-0.8-3.7c-0.7-13.4-2.4-26.8-4.3-40c-0.9-6.3-2.4-12.6-3.8-18.8c-1.3-5.6-3.5-10.9-6.1-16.1
		c-5.9-12.1-12.6-23.7-19.8-35.1c-10.5-16.5-22-32.2-34.4-47.3c-1.6-2-3.2-4-4.8-6c-0.7-1,0-2.9,1.1-3c0.9-0.1,1.9-0.4,2.8-0.4
		c16.6-1.3,33.1-3.4,49.6-5.4c15.2-1.9,30.4-4.1,45.5-6.6c19.9-3.3,39.6-7.1,59.3-11.6c31.5-7.2,62.6-15.8,93-26.5
		c32.9-11.7,64.8-25.5,95-43c18.6-10.8,36.3-22.7,52.5-36.8c5.8-5,11.2-10.5,16.8-15.8c0.6-0.5,1.6-0.6,2.4-0.9
		C1696.5,717.3,1697.1,718.1,1696.7,719z"/>
	<path class="st2" d="M1556,607c0.4,1,0.3,2-0.5,2.5c-1.3,0.9-2.8,1.5-4.3,2.2c-56.1,24.7-101.2,63-137.3,112.2
		c-23,31.4-40.8,65.7-54.6,102c-2.6,6.9-5,13.8-7.5,20.7c-0.3,0.9-0.6,1.8-0.9,2.7c-0.8,2.2-2.3,3.8-4.8,4.1
		c-4.1,0.5-8.2,1.3-12.3,1.7c-14,1.6-28,3-42,4.6c-4.1,0.5-8.3,1-12.4,1.4c-1.9,0.2-3.8,0-5.8,0c-1.4-1.4-2.9-2.7-4.1-4.1
		c-9.7-10.7-19.9-20.8-30.4-30.6c-23.8-22.3-41.1-48.8-52-79.5c-1.2-3.3-2.1-6.7-3.1-10.1c-0.4-1.5-0.6-3.1-1-4.8
		c1-0.5,1.8-1.2,2.6-1.3c7.6-1.3,15.1-2.5,22.7-3.6c19.6-3,38.9-7.5,58-12.8c44.5-12.2,87.3-29.1,128.5-49.8
		c20.6-10.3,41.5-19.8,63-28.1c30.2-11.6,61.1-20.7,92.5-28.3c1.9-0.4,3.8-0.7,5.7-1.1L1556,607z"/>
	<path class="st2" d="M1587.6,440.8c-1.1-0.5-2.4-0.8-3.4-1.5c-26.7-20.4-56.6-34.7-88-46.2c-24.3-8.9-49.3-15.8-74.6-21.4
		c-20-4.4-40.1-7.9-60.4-10.9c-13-1.9-26-3.1-39-4.5c-10.5-1.1-21-2-31.5-3c-1-0.1-1.9-0.2-2.9-0.3c-16.3-0.8-32.6-1.8-48.9-2.3
		c-33.3-1-66.5-0.7-99.8,0c-8,0.2-16,0.7-24,1c-2.9,0.1-5.7,0.3-8.6,0.5c-15.6,0.8-31.3,1.5-46.9,2.6c-11.5,0.8-22.9,2-34.4,3
		c-9.9,0.9-19.8,1.6-29.6,2.6c-8.9,0.9-17.8,1.9-26.7,2.9c-6.7,0.8-13.3,1.5-20,2.4c-10.5,1.3-20.9,2.6-31.4,3.8
		c-1.8,0.2-3.7,0.5-5.6-0.2c0.2-0.5,0.2-0.9,0.5-1c1.4-0.7,2.9-1.4,4.4-1.8c26.1-7.7,51.2-18,76.3-28.5
		c19.4-8.2,38.8-16.4,58.6-23.8c28.5-10.6,57.7-19,87.5-24.6c19.5-3.7,39.1-6.5,58.9-7.5c3.5-0.2,7-0.4,10.5-0.2
		c12.8,0.5,25.5,1.1,38.3,2.5c42.7,4.8,84.2,14.9,125.4,27c22.4,6.6,44.5,13.9,66.4,21.8c4.5,1.6,8.9,3.5,13.2,5.6
		c30.9,14.9,60.2,32.4,87.2,53.7c15.9,12.5,30.6,26.2,44,41.3c1.5,1.7,2.8,3.5,4.1,5.3c0.3,0.4,0,1.2,0,1.8
		C1587.4,441,1587.6,440.8,1587.6,440.8z"/>
	<path class="st3" d="M655.5,640.9c1.4-0.8,3-1.8,4.7-2.6c14.3-6.5,29.3-10.7,44.8-13.4c10.1-1.7,20.3-2.2,30.5-2.9
		c3.8-0.3,7.7-0.2,11.5-0.1c25.3,0.8,50.2,4.8,74.7,11c1.8,0.5,3.5,1.4,5.3,2.1c-0.3,0.8-0.4,1.5-0.8,2c-0.6,0.7-1.4,1.3-2.1,1.9
		c-16.5,12.3-30.7,26.9-43.7,42.8c-19.5,23.9-35.4,50-49.1,77.5c-2,4-3.9,8-5.9,12c-0.7,1.5-2.5,1.9-4.1,1
		c-24.1-13.8-43.8-32-56.8-56.8c-12-22.9-14.9-47.3-9.8-72.6C654.7,642.4,655.1,641.8,655.5,640.9z"/>
	<path class="st3" d="M1485.7,352.8c0.9-0.1,1.9-0.5,2.8-0.3c1.8,0.5,3.6,1.2,5.4,1.9c39.9,16.3,79.2,34.2,117.2,54.6
		c14.1,7.6,28,15.5,41.3,24.4c5.6,3.7,11,7.7,16.4,11.7c5.9,4.4,10.9,9.8,15.5,15.7c7.7,9.9,13.8,20.7,18.9,32.2
		c7.8,17.3,13,35.3,17,53.8c2.5,11.6,4,23.3,5.4,35c0.2,1.2,0.1,2.6-0.1,3.8c-0.1,0.5-0.7,1.2-1.2,1.4c-1.2,0.3-2.5,0.4-3.8,0.4
		c-9.9-0.1-19.8-0.4-29.7-0.3c-7.7,0.1-15.3,0.7-23,1.2c-3.2,0.2-6.3,0.1-9.4-1.3c-3.2-1.5-6.5-2.7-9.7-4c-1.4-0.5-4-0.7-4.1-2
		c-0.4-5.7,1.5-12.4,1.1-18.2c-0.9-15.1-4.4-29.7-9.1-44c-8.3-25.1-20.9-48-36.8-69.1c-16.5-21.8-35.8-40.9-57.1-57.9
		c-15.8-12.6-32.4-23.8-49.8-34.1c-2.4-1.4-5.2-2.4-6.8-5C1485.9,352.6,1485.7,352.8,1485.7,352.8z"/>
	<path class="st3" d="M714.9,498.7c-0.3,0.8-0.4,1.6-0.8,1.8c-1.4,0.7-2.9,1.4-4.4,1.8c-10.1,3-20,6.6-29.5,11.2
		c-14.5,7-27.6,15.9-38.7,27.7c-1.1,1.2-2.2,2.3-3.5,3.2c-0.7,0.5-1.8,0.6-2.7-0.1c-0.5-0.4-1.1-0.7-1.5-1.2
		c-8-8.4-11.2-18.5-9.5-29.9c1.3-8.9,4.6-17.2,9.5-24.9c1.1-1.7,2.9-2.4,5-1.8c2.7,0.8,5.5,1.8,8.2,2.7c10.3,3.6,20.8,5.9,31.6,7.4
		c9.2,1.3,18.4,1.7,27.7,1.8C709.1,498.6,712,498.7,714.9,498.7z"/>
	<path class="st4" d="M1556.2,607.1c0.9-0.2,1.8-0.5,2.7-0.7c0.2,0,0.7,0.1,0.8,0.2c0.2,0.7-0.2,1.1-1,1c-0.9-0.1-1.7-0.4-2.6-0.7
		C1556,607,1556.2,607.1,1556.2,607.1z"/>
	<path class="st4" d="M1482.3,350.3c0.8,0.2,1.6,0.4,2.3,0.7c0.8,0.3,1.1,1,1,1.9c0,0,0.2-0.2,0.2-0.2c-1.4-0.2-2.9-0.3-3.3-2.1
		L1482.3,350.3z"/>
	<path class="st4" d="M1482.5,350.5c-0.2-0.1-0.5-0.3-0.5-0.3c-0.3,0.5-0.2,0.5,0.2,0.1C1482.3,350.3,1482.5,350.5,1482.5,350.5z"/>
	<path class="st4" d="M1589.2,443.5c-0.5-0.9-1-1.8-1.6-2.8c0,0-0.2,0.2-0.2,0.2c1.6,0.1,1.7,1.1,1.5,2.3L1589.2,443.5z"/>
	<path class="st4" d="M1588.9,443.3c0.2,0,0.4,0.1,0.6,0.1c0-0.5-0.2-0.5-0.3,0.1C1589.2,443.5,1588.9,443.3,1588.9,443.3z"/>
	<path class="st2" d="M1211.1,1362.6c-129,81-244.8,157.1-272.1,205.1c0,0-9.3-20-20.7-89.3S901,1395,836,1361.7
		s-92.3-53.1-110.3-54.9c-15.6-1.5-49.6,4.2-71.5,7.1c0.6,10.6,1.3,21.2,1.7,31.8c0.7,19.1,1.8,38.2,2.4,57.3
		c25.6-1.9,83.5-3.3,130.7,17.3c62.7,27.3,61.3,55.3,69.3,97.3S873,1645,839.7,1661s-40.7,18.7-55.3-4
		c-13.9-21.5-66.2-79.2-137-81.4c-3.1,14.2-6.2,28.5-9.2,42.7c-3,13.8-5,27.7-6,41.7c-1.1,15.2,2.2,29.2,11.4,41.6
		c4.4,5.9,9,11.7,14.1,17c18.1,18.8,38.4,34.7,61.1,47.6c5.6,3.2,11.3,6,17.3,8.2c3.6,1.3,7.2,2.6,11.1,2.9
		c8.3,0.5,16.6,1.3,24.9,1.6c29.1,0.8,58.2,1.7,87.3,2.1c23,0.3,46.1,0.1,69.1,0c9.6,0,19.2-0.2,28.8-0.7
		c22.1-1.1,44.2-0.9,66.2-2.8c11.8-1,23.6-1.4,35.4-2.6c13.7-1.4,27.3-3,40.9-5c7.2-1,14.4-2.4,21.4-4l46.1-15.2
		c10.4-4.6,20.2-10.1,29.4-16.6l50.9-50.9c6.6-7.9,13.2-15.8,19.7-23.7c43.6-52.9,90.3-103,139.5-150.7
		c13.5-13.1,27.2-25.9,41.4-38.3c-2.4-7.1-12-41.6-13.8-131.5c-2-102.7,18.7-178,18.7-178l-0.2-0.1c-0.4,0.1-0.9,0.1-1.4,0
		c-1.9-0.4-3.7-1-5.5-1.6c-17.7-5.6-35.3-11.2-53-16.9c-11.3-3.6-22.5-7.1-33.8-10.8c-2.3-0.8-5-1.1-6.9-3.7
		C1352.2,1128,1340.1,1281.6,1211.1,1362.6z"/>
	<g>
		<path class="st3" d="M1587.4,441c0,0,0.2-0.2,0.2-0.2c-0.1,0-0.1,0-0.2-0.1C1587.4,440.8,1587.4,440.9,1587.4,441z"/>
		<path class="st3" d="M1587.4,439.2c-1.3-1.8-2.6-3.6-4.1-5.3c-13.4-15.1-28.2-28.8-44-41.3c-27-21.3-56.3-38.7-87.2-53.7
			c-4.3-2.1-8.7-4-13.2-5.6c-15.5-5.6-31-10.8-46.7-15.8c-11.5,15-24,29.1-37.4,42.4c2.2,0.3,4.4,0.6,6.6,0.9
			c20.2,2.9,40.4,6.5,60.4,10.9c25.3,5.6,50.2,12.4,74.6,21.4c31.4,11.5,61.2,25.8,88,46.2c0.9,0.7,2.1,1,3.2,1.5
			C1587.5,440.1,1587.6,439.5,1587.4,439.2z"/>
	</g>
	<path class="st3" d="M1078.8,513.6c0.8-0.1,1.7-0.1,2.5-0.2c0.6,0,1.3-0.1,1.9-0.2c10.2-1,20.4-1.9,30.5-3
		c12.7-1.4,25.4-2.7,38.1-4.6c19.9-3,39.7-6.5,59.4-10.6c46.7-9.7,92.4-22.9,137.1-39.5c36-13.3,71.1-28.7,104.9-47.1
		c8.1-4.4,18.9-9,26.9-13.6c0.1-0.1,0.2-0.1,0.2-0.2c0.1-0.3,0.3-0.6,0.4-0.9c-0.1-0.6-0.4-1.3-0.1-2.3c-0.5-0.4-0.9-1-1.4-1.3
		c-1.1-0.6-2.3-1-3.5-1.4c-17.4-5.5-35-10.2-52.7-14.2c-18.7-4.2-37.6-7.6-56.5-10.5c-4.8-0.7-9.5-1.3-14.3-1.9
		C1280.4,432.9,1183.6,481,1078.8,513.6z"/>
	<g>
		<path class="st3" d="M1112.5,555.1c21.7,5.6,43.4,10.8,65.4,14.9c12.3,2.3,24.5,4.5,36.9,5.9c9.2,1,18.4,2.3,27.6,3.2
			c7,0.7,14,1,21.1,1.3c13.1,0.7,26.2,0.7,39.3,0c8-0.4,16-0.8,24-1.2c4.5-0.2,8.9-0.4,13.4-0.7c9.3-0.6,18.6-1.2,27.9-1.7
			c52.1-61,87.6-123.4,111.7-180.3c-6.8,4-13.7,8.1-20.6,11.9c-35,19.3-71.6,35.4-109,49.4c-42.6,15.9-86.1,28.5-130.4,38.3
			c-25,5.5-50.2,9.8-75.5,13.4c-6,0.9-12,1.6-18.1,2.2c-8.6,0.9-17.2,1.6-25.8,2.6c-10.7,1.3-21.5,2.1-32.3,2.6
			c-15.3,4.6-30.8,8.9-46.4,12.8C1052,538.3,1082.1,547.2,1112.5,555.1z"/>
		<path class="st3" d="M1614.8,477c-5.8-10.1-13-19-21.6-26.7c-9.1-8.2-18.8-15.3-29.1-21.9c-23.4-14.8-48.5-25.8-74.4-35
			c-2.4-0.8-4.3-0.3-6.3,0.9c-0.4,0.2-0.7,0.4-1.1,0.7c27.4,46.5,52.3,105.3,59.9,172.8c12.2,0,24.5,0.6,36.7,1.5
			c13.4,1,26.7,2.6,39.8,5.5c6.9,1.5,13.6,3.4,20.5,5c1.2,0.3,2.4,0.3,3.9,0.5c0.2-1.9,0.6-3.5,0.6-5c0.3-10.3-1-20.4-2.9-30.5
			C1636,520.7,1626.9,498.3,1614.8,477z"/>
	</g>
	<path class="st3" d="M1694.1,717.5c-5.6,5.2-11,10.7-16.8,15.8c-16.2,14.1-34,26.1-52.5,36.8c-30.2,17.5-62.1,31.4-95,43
		c-17.5,6.2-35.3,11.7-53.2,16.6c-30.7,48.8-73.4,99.1-131.1,150.2c0.7,3.4,1.4,6.7,1.9,10.1c1.9,13.3,3.6,26.6,4.3,40
		c0.1,1.2,0.3,2.5,0.8,3.7c0.2,0.5,1,1,1.4,1c1.9-0.4,3.7-0.8,5.5-1.5c20.7-8.4,41.1-17.7,61-27.8c39.2-19.8,76.6-42.5,111.5-69.1
		c35.8-27.3,68.1-58.1,96.1-93.4c24.7-31.3,45.3-65,60.5-101.9c3-7.4,5.8-14.9,8.4-21.9c0.3-1-0.2-1.7-0.3-2.4
		C1695.6,716.9,1694.6,717,1694.1,717.5z"/>
	<path class="st3" d="M1699.6,604.3c-1.1-3.3-2-6.7-3.2-10.1c-1.3-3.9-2.4-4.7-6.2-4.6c-4.5,0.1-8.9,0.4-13.4,0.6c0-0.1,0-0.2,0-0.3
		c-8.6,0.7-17.2,1.6-25.8,2.2c-13.4,0.9-26.7,3-40,4.6c-4.7,0.6-9.5,1.5-14.1,2.5c-18.3,4-35.7,10.4-52.6,18.4
		c-1.5,64.2-19.8,134.6-65.7,208.8c29.9-8.3,59.3-18.2,87.9-30.3c26.5-11.3,52.1-24.3,76.2-40.1c11.8-7.7,23.1-16.1,33.7-25.3
		c7.5-6.5,14.6-13.4,21-21c2.5-3,4.4-6.3,5.4-10c3-11.4,5.7-22.9,7.4-34.6c1.1-7.3,1.9-14.6,0-21.9
		C1706.8,630.1,1703.8,617,1699.6,604.3z"/>
	<g>
		<path class="st3" d="M1340.1,580.9c-3.8,0.2-7.7,0.2-11.5,0.5c-22,1.9-44.1,1.8-66.2,1.3c-3.8-0.1-7.7-0.1-11.5-0.5
			c-14.6-1.5-29.3-2.7-43.9-4.8c-19.3-2.8-38.5-6.4-57.5-10.6c-27.8-6.2-55.2-13.7-82.6-21.4c-16.8-4.8-33.7-9.6-50.5-14.4
			c-62.4,15.6-126.4,26.3-188.7,33.6c-16.1-11.8-33.3-21.9-51.5-28.9c-37.3-14.4-76.8-15.3-109.4-11.9c-8.4,5.3-16.1,11.4-23,18.7
			c-9.9,10.6-17.1,22.3-21.5,35.3l0,0c0,0,0,0,0,0c-0.1,0.3-0.2,0.5-0.2,0.8c-0.3,0.9-0.6,1.8-0.9,2.8c-0.1,0.4-0.3,0.9-0.4,1.3
			c-0.2,0.8-0.4,1.6-0.6,2.4c-0.1,0.4-0.2,0.8-0.3,1.3c-0.3,1.2-0.6,2.4-0.8,3.6c0,0.1-0.1,0.3-0.1,0.4c-0.2,1.1-0.4,2.2-0.6,3.3
			c-0.1,0.4-0.1,0.8-0.2,1.2c-0.1,0.9-0.3,1.8-0.4,2.8c0,0.4-0.1,0.8-0.1,1.2c-0.1,1.3-0.3,2.6-0.4,3.9c-0.6,8-0.4,16,0.6,23.9
			c1,7.6,2.8,15.1,6,22.1c0.6,1.4,1.7,2.7,2.7,3.9c0.3,0.4,1.3,0.7,1.7,0.5c2-1,3.9-2.2,5.7-3.4c10.1-6.8,20.8-12.5,32.2-16.9
			c21.4-8.4,43.6-12.5,66.4-13.2c12.5-0.4,24.9,0,37.4,1.4c14.3,1.6,28.5,4,42.5,7.2c26.2,6,51.6,14.7,76.5,24.9
			c3.2,1.3,6.3,2.6,9.4,4c1.1,0.5,2.2,1,3.4,1.5c2,0.9,4,1.7,5.9,2.6c1.4,0.6,2.8,1.3,4.2,1.9c1.7,0.8,3.3,1.5,5,2.3
			c1.6,0.7,3.1,1.5,4.7,2.2c1.4,0.7,2.8,1.4,4.2,2c1.7,0.8,3.5,1.7,5.2,2.5c1.1,0.5,2.1,1.1,3.2,1.6c7.6,3.8,15.1,7.7,22.5,11.8h0
			c3.8,2.1,7.7,4.2,11.5,6.3c21.5,12.2,44.3,21.4,68.2,27.7c12.4,3.3,24.9,5.9,37.5,7.7c10.5,1.5,20.9,2.8,31.5,3.3
			c8.3,0.4,16.6,0.4,23.7,0.6c15-0.4,28.7-0.6,42.4-1.9c6.9-0.7,13.8-1.5,20.7-2.4c72-45.2,128.7-95.8,173.4-147.6
			c-1.5,0.1-3.1,0.2-4.6,0.3C1354.2,580.1,1347.1,580.5,1340.1,580.9z"/>
		<path class="st3" d="M1650.7,587c-1.8-0.8-1.7-1.7-3.5-2.3c-24.4-8.4-51.4-12.3-77.1-13.3c-9.3-0.4-18.5-0.6-27.8-0.6
			c1.2,11.9,1.9,24,2,36.3c4.7-1.1,9.3-2.2,14-3.2c15.3-3.4,30.7-6.4,46.1-8.8c12.3-1.9,24.6-3.8,37.1-4.7c2.9-0.2,5.7-0.9,8.5-1.4
			c0.4-0.1,0.8-0.7,1-1.2C1651.3,587.6,1650.9,587.1,1650.7,587z"/>
	</g>
	<path class="st5" d="M1822.2,686.1c-1.2-4.4-2.5-8.8-4-13.1c-2.3-6.7-4.9-13.2-8.6-19.2c-6.5-10.6-13.8-20.8-22.2-30.1
		c-4.3-4.8-8.9-9.2-13.8-13.3c-7-5.7-14.6-10.3-22.7-13.6c-8.8,15.8-20.7,34.6-36.4,54.8c2.2,10.4,4.1,20.8,5.8,31.3
		c1.6,10.1,2.9,20.2,4,30.4c1.9,17.8,3.1,35.7,3.2,53.6c0,2.7,0,5.5,0,8.2C1764.4,750.7,1797,721.4,1822.2,686.1z"/>
	<path class="st5" d="M1649.8,817.4c26.1-11.7,51.4-25.1,75.1-40.5c0.2-13.5-0.2-27.1-1-40.6c-0.5-8.9-1.3-17.9-2.4-26.8
		c-1.5-12-3.4-24-5.3-36c-0.3-2.2-1.1-4.3-1.7-6.5c-0.1-0.5-0.8-0.8-1.5-1.4c-0.3,1.4-0.7,2.6-0.9,3.8c-2.3,12.3-5,24.4-8.6,36.4
		c-9.8,33-24.1,64-42,93.3C1657.8,805.4,1653.8,811.5,1649.8,817.4z"/>
	<path class="st5" d="M1676.4,730.7c7.5-6.5,14.6-13.4,21-21c2.5-3,4.4-6.3,5.4-10c3-11.4,5.7-22.9,7.4-34.6c0.4-3,0.8-6,1-9.1
		c-48.6,61.2-131.9,134.5-269.4,179.9c7.1-1.7,14.2-3.4,21.2-5.2c35.3-9.1,69.9-20.2,103.5-34.5c26.5-11.3,52.1-24.3,76.2-40.1
		C1654.4,748.3,1665.8,739.9,1676.4,730.7z"/>
	<path class="st5" d="M1688.4,740.9c3-7.4,5.8-14.9,8.4-21.9c0.3-1-0.2-1.7-0.3-2.4c-0.8,0.3-1.8,0.3-2.4,0.9
		c-5.6,5.2-11,10.7-16.8,15.8c-16.2,14.1-34,26.1-52.5,36.8c-30.2,17.5-62.1,31.4-95,43c-30.5,10.8-61.5,19.3-93,26.5
		c-8.4,1.9-16.8,3.7-25.3,5.4c-39.1,11.1-82.3,19.9-129.8,25.8c0.5,0.6,1,1.3,1.5,1.9c5.8,7.1,11.4,14.3,16.8,21.7
		c66.4-3.7,215.5-18.3,345.3-75.1C1662.4,794.9,1676.9,768.8,1688.4,740.9z"/>
	<path class="st6" d="M1684.1,460.7c-2.2-2.9-4.6-5.7-7.1-8.3c-13.4,6.2-33.8,15-59.4,24.5c5.4,9.4,10.1,19.1,14.2,29.2
		c22.2-11.4,41.8-23.4,59.2-35.6C1688.8,467.1,1686.6,463.9,1684.1,460.7z"/>
	<path class="st7" d="M917.6,369.6c10.5-1.3,20.9-2.6,31.4-3.8c6.7-0.8,13.3-1.6,20-2.4c8.9-1,17.8-2,26.7-2.9
		c2.6-0.3,5.2-0.5,7.9-0.7c-5-6.4-10-13-14.9-19.9c-23.6,9.9-47.3,19.4-71.8,26.6c-1.5,0.4-2.9,1.2-4.4,1.8c-0.2,0.1-0.3,0.6-0.5,1
		C913.8,370.1,915.7,369.8,917.6,369.6z"/>
	<g>
		<path class="st7" d="M1007.5,515.9c24.6,0,49.3-0.8,73.9-2.4c0.6,0,1.3-0.1,1.9-0.2c10.2-1,20.4-1.9,30.5-3
			c12.7-1.4,25.4-2.7,38.1-4.6c13.6-2,27.2-4.4,40.7-6.9c-67.1-24.4-131.8-67.2-187.2-136.7c-1.8,0.2-3.6,0.3-5.5,0.5
			c-14.6,1.5-29.2,3.2-43.8,4.9c-17.8,2.1-35.6,4.1-53.3,6.5c-14.1,1.9-28.2,4.1-42.3,6.2C883.1,416.9,927.7,472.7,1007.5,515.9z"/>
		<path class="st7" d="M744.7,454.7c-10-6.8-19.1-13.2-27.1-19.2c-4.8,4-9.5,8.2-13.9,12.8c-2.7,2.8-5.2,5.6-7.7,8.6
			c9,6.7,19.3,14.1,30.9,22c6.9,4.7,14.5,9.7,22.8,14.9c0.4,0,0.9-0.1,1.3-0.1c9.5-0.9,19.1-2.3,28.6-2.7c7.6-0.3,15.1-0.5,22.7-0.6
			C779.8,477.6,760.4,465.4,744.7,454.7z"/>
	</g>
	<path class="st7" d="M1615.2,477.8c-95.8,34.9-262.7,76.9-417.6,22.8c-17.7,3.4-35.5,6.3-53.3,8.9c-6,0.9-12,1.6-18.1,2.2
		c-8.6,0.9-17.2,1.6-25.8,2.6c-13.3,1.6-26.8,2.4-40.2,3c-16,0.6-32.1,1.2-48.1,1.2c16,8.4,33.3,16.3,52.2,23.5
		c16,4.6,32.1,9,48.2,13.2c21.7,5.6,43.4,10.8,65.4,14.9c12.3,2.3,24.5,4.5,36.9,5.9c2.1,0.2,4.1,0.5,6.1,0.7
		c30.9,2.8,64.2,3.7,100,2.4c27.3-1,53.2-3,77.7-5.8c-2.7,0.7-5.4,1.5-8.1,2.2c13.8-0.8,27.7-1.6,41.6-2.4c1-0.1,1.9-0.2,2.9-0.2
		c6.7-0.4,13.4-0.9,20.1-1.3c3.5-0.2,7-0.3,10.5-0.6c12.6-1,25.3-1.6,37.9-2c36.8-14.9,73.3-32.5,109.4-52.8l-0.4-0.6
		c5.8-2.7,11.4-5.4,16.9-8.2C1625.4,497.2,1620.6,487.4,1615.2,477.8z"/>
	<path class="st7" d="M930.4,582.3c88.7,31.6,179.2,47.5,269.6,47.5c11.8,0,23.7-0.3,35.5-0.8c87.6-4.1,175-23.2,260.9-57.2
		c-5.5,0.3-11,0.6-16.5,1c-2.6,0.2-5.1,0.2-7.7,0.4c-15.3,0.8-30.7,1.7-46,2.5c-1,0.1-1.9,0.2-2.9,0.2c-6.4,0.4-12.8,0.9-19.1,1.3
		c-3.5,0.2-7,0.4-10.5,0.6c-5.5,0.3-11,0.7-16.5,1C1233,614,1087.2,606,941.6,554.4c-52.2-18.5-98-40.7-135.3-61.7
		c-17.5,0-34.9,1.2-52.2,3.3c-0.2,0-0.5,0.1-0.7,0.1C796.9,523.5,857.5,556.3,930.4,582.3z"/>
	<path class="st3" d="M763.6,1322.6c-17.4-9.5-28.9-14.9-38-15.8c-15.6-1.5-49.6,4.2-71.5,7.1c0.6,10.6,1.3,21.2,1.7,31.8
		c0.7,19,1.8,38,2.4,57C697.4,1354.9,741,1332.1,763.6,1322.6z"/>
	<path class="st3" d="M1453,1161l-0.2-0.1c-0.4,0.1-0.9,0.1-1.4,0c-1.9-0.4-3.7-1-5.5-1.6c-17.7-5.6-35.3-11.2-53-16.9
		c-11.3-3.6-22.5-7.1-33.8-10.8c-2.3-0.8-5-1.1-6.9-3.7c0,0,90.6,128.6,1,305.9c-6.8-85.8-28.3-139.6-46.6-171
		c-10.4,17.7-23.2,35.6-38.8,52.5c36.1,46.8,60.5,92.2,57.9,165.5c-7.8,12.8-6.6,10.2-16.5,23.4C1151,1717,883.6,1797,823.3,1755
		c-51.7-36-123.7-92.5-191-81.6c1.2,10.1,4.7,19.5,11.1,28.2c4.4,5.9,9,11.7,14.1,17c18.1,18.8,38.4,34.7,61.1,47.6
		c5.6,3.2,11.3,6,17.3,8.2c3.6,1.3,7.2,2.6,11.1,2.9c8.3,0.5,16.6,1.3,24.9,1.6c29.1,0.8,58.2,1.7,87.3,2.1c23,0.3,46.1,0.1,69.1,0
		c9.6,0,19.2-0.2,28.8-0.7c22.1-1.1,44.2-0.9,66.2-2.8c11.8-1,23.6-1.4,35.4-2.6c13.7-1.4,27.3-3,40.9-5c7.2-1,14.4-2.4,21.4-4
		l46.1-15.2c10.4-4.6,20.2-10.1,29.4-16.6l50.9-50.9c6.6-7.9,13.2-15.8,19.7-23.7c26.5-32.1,54.2-63.2,82.8-93.4v0
		c0.6-0.6,1.2-1.3,1.8-1.9c17.9-18.8,36.2-37.3,54.9-55.4c13.5-13.1,27.2-25.9,41.4-38.3c-2.4-7.1-12-41.6-13.8-131.5
		C1432.3,1236.3,1453,1161,1453,1161z"/>
	<path class="st8" d="M745.2,1407.2c14.5-21.9,28.5-38.4,39.8-50.2c5.3-5.5,10.3-10.3,14.9-14.4c-10.5-5.7-19.7-10.8-27.7-15.3
		c-17.6,16.8-38.9,41.3-60,75.6C722.8,1403.8,734,1405.1,745.2,1407.2z"/>
	<g>
		<path class="st9" d="M681.6,1046.3c0.1,0.6,0.4,1.2,0.6,1.8c0.2,0.7,2,1.2,2.5,0.6c1.8-2.2,3.8-4.3,5.5-6.6
			c17-22.8,34-45.7,51-68.6c1.9-2.6,3.9-5.1,5.9-7.6c0.2-0.2,0.9,0,1.4,0.1l-11.4-31l-63.2-20.1c-2,11.5-3.6,20.7-3.7,20.9
			c-0.3,2.2-0.5,4.4-0.5,6.7c0,17,1.6,33.8,3.6,50.7C675.3,1011,678.2,1028.7,681.6,1046.3z"/>
		<path class="st9" d="M678.8,1061.6c-0.2,0.2-0.4,0.5-0.6,0.7l0,0L678.8,1061.6z"/>
	</g>
	<path class="st9" d="M803,929.7c0,0-22.7,62.7-18.7,88.7s50.7,89.3,88.7,94.7s173.3,9.8,227.3-30.1s48.3-81.5,36.3-113.2
		s-27.3-44.1-27.3-44.1l-50.3-10c0,0,59.3,65.4-11.3,109.4L899,972.4c0,0-23.7-37.2,28.2-60.6C979,888.3,803,929.7,803,929.7z"/>
	<path class="st9" d="M760.3,1057c0,0,29.3,38,60,50.7c30.7,12.7,37.3,21,28.7,25.8c-8.7,4.8-66,32.8-88.7,27.5
		c-22.7-5.3-36.7-16.7-36-21.3S749.7,1067.1,760.3,1057z"/>
	<path class="st9" d="M800,1294.4l10.7-12.1l12.6-32.3c-10.7,18-41.3,28-127.2,21.2c-51.3-4.1-84.9-26.9-103.6-44.6
		c0.7,4.8,1.5,9.6,2.5,14.4c2.2,10.3,7.4,19,15.2,26.1c4.5,4.1,9.4,7.7,14.6,10.9c7.9,5,16.1,9.2,24.4,13.3c4.3,2.1,8.7,4.1,13,6.1
		c1.4,0.7,2.9,1.4,4.3,2.2c0.3,0.2,0.2,1,0.1,1.5c0,0.1-0.6,0.4-0.8,0.3c-3.3-1.2-6.6-2.4-9.8-3.7c-0.8-0.3-2.2,0.4-2.2,1.2
		c-0.1,1.3-0.2,2.5-0.2,3.8c0.6,11.1,1.4,22.1,1.9,33.2l108.2-13.1C798.6,1304.5,800,1294.4,800,1294.4z"/>
	<g>
		<path class="st9" d="M657.8,1389.8c0-1-0.1-1.9-0.1-2.9C657.7,1387.9,657.8,1388.8,657.8,1389.8z"/>
		<path class="st9" d="M754.9,1623.6c14.2,13,24.4,25.6,29.4,33.4c14.7,22.7,22,20,55.3,4s26.7-101.3,18.7-143.3s-6.7-70-69.3-97.3
			c-47.2-20.6-105.1-19.2-130.7-17.3c0.2,6.2,0.3,12.3,0.4,18.5c0,4.2,0.3,8.3,0.4,12.5c0.1,1.6,0.3,3.2,0.5,4.8
			c0.2,1.6,1.5,2.7,3.4,2.7c7.4,0,14.7-0.1,22.1-0.1c6.8,0,13.5,0.7,20.2,1.7h0l0,0c3.1,0.5,6.2,1,9.2,1.5c8.2,1.5,16.1,4.1,23.9,7
			c13.5,5,27.3,9.1,41.3,11.9l56.3,2.6c0,0,34.3,77.7-7,130.3C810.9,1619.4,781.8,1624.8,754.9,1623.6z"/>
	</g>
	<path class="st9" d="M843.6,639.3c-2.7-0.9-5.5-1.7-8.3-2.5c-1.6-0.4-3.2-0.2-4.6,0.8c-2.1,1.4-4.3,2.8-6.3,4.3
		c-7.2,5.3-13.9,11.2-20.3,17.5c-12.8,12.6-24.3,26.4-34.7,40.9c-15.5,21.6-28.6,44.7-40.1,68.7c-1.9,4-3.9,8.1-6.1,12
		c53.7-74.7,122-109.6,165.8-125.2C874.1,649.7,859,644.2,843.6,639.3z"/>
	<g>
		<path class="st9" d="M1099.7,1769.9c1.7-0.2,3.3-0.5,4.9-0.8C1103,1769.4,1101.4,1769.6,1099.7,1769.9z"/>
		<path class="st9" d="M1452.2,1161C1452.2,1161,1452.2,1161,1452.2,1161C1452.2,1161,1452.2,1161,1452.2,1161z"/>
		<path class="st9" d="M934.4,1780.8L934.4,1780.8C934.4,1780.8,934.4,1780.8,934.4,1780.8C934.4,1780.8,934.4,1780.8,934.4,1780.8z
			"/>
		<path class="st9" d="M1218.1,1715.9c6.7-6.8,13.3-13.8,19.6-21.1c6.6-7.7,13.1-15.4,19.6-23.2c-3.2,3.9-6.5,7.8-9.7,11.6
			l-50.9,50.9c-9.2,6.5-19,12-29.4,16.6l-46.1,15.2c-3.4,0.8-6.8,1.5-10.2,2.1c18.3-3.4,36-8.7,53.3-16
			C1184.4,1743.4,1202.6,1731.6,1218.1,1715.9z"/>
		<path class="st9" d="M1105.9,1768.9c1.3-0.2,2.6-0.4,3.9-0.7C1108.5,1768.4,1107.2,1768.7,1105.9,1768.9z"/>
		<path class="st9" d="M1257.6,1671.1c3.2-3.9,6.4-7.7,9.6-11.6C1264,1663.3,1260.8,1667.2,1257.6,1671.1z"/>
		<path class="st9" d="M1693.6,1105.6c-1.8-16.1-6.3-31.3-14.3-45.4c-4.8-8.4-10.7-15.9-18-22.3c-13.4-11.8-29-18.5-46.9-19.5
			c-15-0.9-29.3,1.8-43.2,7c-28.5,10.7-52.3,28-71.9,51.1c-19.1,22.5-32.8,47.9-42.2,75.8c-0.7,2.1-1.3,4.3-2.1,6.4
			c-0.4,1.3-1.2,2-2.2,2.3l0.2,0.1c0,0-20.7,75.3-18.7,178c1.8,90,11.4,124.4,13.8,131.5c0,0,0,0,0,0c7.1-6.2,14.2-12.2,21.5-18.1
			c7-5.6,3.7,0.2-5.3,7.8c-11.7,9.9-23.3,20-34.6,30.5c-54.7,50.8-105.8,105-153.7,162.3c-9.6,11.5-19.2,23.2-28.9,34.7
			c-8.2,9.8-16.7,19.4-25.7,28.5c-17.3,17.6-37.6,30.5-60.4,39.9c-25.7,10.6-52.6,15.7-80,18.9c-8.6,1-17.2,1.7-25.8,2.5
			c-4.5,0.4-8.9,0.9-13.4,1.4c-0.6,0.1-1.3,0.2-1.8,0.5c-0.4,0.3-0.9,1.1-0.8,1.5c0.7,2.1,1.6,4.2,2.4,6.2
			c5,11.4,10.2,22.7,14.8,34.3c9,22.7,16.3,45.8,20.4,69.8c287.5-86.6,212.1-209.2,333.5-326.2c93.4-90.1,200,2.8,248.9,56.9
			c-13.8-40-24.1-80.8-31.5-122.5c-1.1-6.4-3.2-12.2-6.6-17.8c-12.8-21-24.6-44.1-37.2-65.2c-1.3-2.2-2.6-4.4-4.1-6.5
			c-0.5-0.7-2.3,0.7-3.2,0c-1.5,1.3-2.9,2.6-4.2,3.9c-4.6,4.6-9.8,8.3-15.5,11.2c-7.5,3.8-15.4,6.4-23.6,7.9
			c-7.9,1.5-15.8,2.2-23.8,0.5c-17.2-3.5-28.5-13.6-34.6-29.8c-0.1-0.1,0.3-0.5,0.5-0.7c0.2-0.1,0.7-0.2,0.8-0.1
			c2.1,1.7,2.5,4.3,3.8,6.5c8.3,14,20.5,21.6,36.9,22.2c14.1,0.5,27.2-3.2,39.6-9.6c13.1-6.7,22-17.3,27.1-31.1
			c4.3-11.6,5.9-23.6,5.1-35.8c-0.5-7-1-14-2.8-20.9c-0.5-1.8-0.9-3.8,0-6c7.5-6.5,14.1-14.3,20.3-22.5c4.8-6.4,9.5-12.8,14.1-19.4
			c17.7-25.5,33.8-52,49.5-78.8c5-8.6,9.1-17.6,12.7-26.8c4.8-12.3,8.2-24.9,10-37.9C1694.6,1130.5,1695,1118.1,1693.6,1105.6z"/>
		<path class="st9" d="M1418,1498c-0.7,0.6-1.3,1.3-2,1.9C1416.7,1499.2,1417.4,1498.6,1418,1498z"/>
		<path class="st9" d="M1427.5,1489.1c-0.3,0.3-0.6,0.6-1,0.9C1426.8,1489.7,1427.2,1489.4,1427.5,1489.1z"/>
		<path class="st9" d="M941.1,1780.7c-1,0-2,0-3,0C939.1,1780.7,940.1,1780.7,941.1,1780.7z"/>
		<path class="st9" d="M957.2,1780.2c-2.2,0.1-4.3,0.2-6.5,0.3C952.8,1780.4,955,1780.3,957.2,1780.2z"/>
		<path class="st9" d="M948.2,1780.5c-1.3,0-2.6,0.1-3.9,0.1C945.6,1780.6,946.9,1780.6,948.2,1780.5z"/>
	</g>
	<path class="st2" d="M701.5,1494.5c-7.6,0-27.7,0-42.2,0c-0.3,8.7-0.8,17.4-1.8,26c-1.2,10.4-3,20.8-5,31.1
		C699.4,1541.7,713.2,1494.5,701.5,1494.5z"/>
	<path class="st3" d="M682.9,930.7c-3.5,0-7,0-10.5,0c-1.2,0-2.4-1.3-2.4-2.5c0-2.9-0.2-5.8,0.1-8.6c1.4-12.7,4.1-25.2,8-37.4
		c0.2-0.6,0.6-1.2,1.1-1.5c0.5-0.3,1.1-0.5,1.7-0.5c0.6,0,1.3,0.2,1.8,0.5c16.3,9.2,30.7,20.7,41.5,36.2c4,5.8,7.8,11.7,9.6,18.6
		c0.2,0.9-0.8,1.9-1.7,1.8c-0.9-0.2-1.9-0.3-2.8-0.6c-2.5-0.6-5-1.2-7.5-1.7C709,932.6,696,931.1,682.9,930.7z"/>
	<path class="st3" d="M965,907.3c-22.6-0.7-41.9,4.6-60.7,12.2c-5.3,2.2-10.3,5.1-14.9,8.7c-4,3.1-8.4,4.2-13.4,4.3
		c-21.8,0.4-45.1,3.1-66.8,2.4c-10-0.3-11.3-0.9-12.4-11.6c-0.7-6.4,0.9-15.5,1.4-21.9c0.1-1.3,0.1-2.6,0.4-3.8
		c1.9-10.4,3.1-11.8,12-15.5c9.1-3.9,18.6-6.8,28.1-9.4c25.2-7.1,50.7-13.2,76.5-17.7c10.1-1.7,20.2-3.5,30.3-4.8
		c6.3-0.8,12.8-0.6,19.2-0.8c2.9-0.1,5.7,0.6,8.4,1.5c6.4,2.1,12.6,4.7,18.6,7.5c15.1,7,29.7,14.9,44.2,23.1
		c28.1,15.8,55.8,32.5,83,50c2.1,1.4,4.2,2.9,6.2,4.4c0.3,0.2,0.3,1,0.3,1.5c0,0.1-0.6,0.4-0.9,0.3c-3.7-0.8-7.5-1.6-11.2-2.5
		c-24.4-6.3-48.9-12.4-73.6-17.6c-14.4-3.1-28.8-5.8-43.4-7.7C985.3,908.5,974.2,906.8,965,907.3z"/>
	<path class="st10" d="M838.7,872.8c-5.9,1.7-11.9,3.4-17.7,5.4l-7.8,56.8c1.6,0,3.1,0,4.7,0l25.4-63.5
		C841.7,871.9,840.2,872.3,838.7,872.8z"/>
	<path class="st10" d="M854.1,933.5c7.4-0.4,14.8-0.8,22-0.9c2.4,0,4.6-0.3,6.7-1l-12.8-67c-1.6,0.4-3.2,0.8-4.8,1.2L854.1,933.5z"
		/>
	<path class="st10" d="M703.8,932.2c4.7,0.5,9.3,1.2,13.9,2l-5.5-31.7c-2-2-4-3.8-6.1-5.6L703.8,932.2z"/>
	<path class="st11" d="M649,1149c-1-8.7-36,41.3-33.7,56c2.3,14.7,18.3,23.1,25.7,21.6S650.3,1161,649,1149z"/>
	<g class="st12">
		<path class="st11" d="M1092.8,1220.3c-5.8-24.4-14.6-43.9-21.5-56.7c-68.6,1.5-138.4,15.5-151.3,55.4
			c-17.7,54.6,44.1,170.6,157.7,149.5C1099.7,1320.6,1104.8,1270.9,1092.8,1220.3z"/>
		<path class="st11" d="M1212.5,1180.5c-13.2-8-63.4-16.1-118.8-17c6.5,13.4,13.5,31.1,18.5,52.2c6.9,28.8,8.5,58,5,86.7
			c-2.5,20.1-7.6,40.1-15.2,59.7c6.2-2.1,12.5-4.6,18.9-7.5C1237,1302,1236.5,1195,1212.5,1180.5z"/>
	</g>
	<g class="st12">
		<path class="st13" d="M781.3,771.7c-2.4-7.2-4.1-14.2-5.4-20.5c-20.9,25.9-32.6,55-23.9,76.4c5.5,13.5,38.5,17.3,76.8,13.3
			C801.9,819.2,788.2,792.5,781.3,771.7z"/>
		<path class="st13" d="M846,697.4c-18.1,7.2-36.7,19.8-52.6,34.9c0.8,8.8,2.7,20.8,7.1,33.8c10.4,30.7,29.6,54.4,57.2,70.4
			c45.6-8.9,91.1-27.6,103.3-53.5C986.5,729,899.5,676.2,846,697.4z"/>
	</g>
	<path class="st14" d="M2060,2501c0-1.6,0.1-3.2,0-4.8c-1-15.6-2-31.3-3.1-46.9c-0.7-9.9-1.5-19.8-2.4-29.6
		c-1-10.8-2.2-21.6-3.3-32.4c-0.7-6.7-1.4-13.4-2.3-20c-1.7-13.3-3.6-26.6-5.4-39.9c-2.3-17.1-5.2-34.1-8.4-51.1
		c-9.3-49.7-21-98.8-38.2-146.4c-10.6-29.3-23.7-57.3-39.5-84.1c-18.4-31.2-38.5-61.2-59.7-90.5c-32.8-45.1-67.8-88.3-104.3-130.4
		c-17.8-20.6-36-40.8-54.6-60.7c-2-2.1-4-4.1-6-6.2c-1.4-1.5-3.1-1.8-5-1.5c12.4,39,142,470.4-168,634.5
		c-258,136.6-392.5-96.8-659.2-130.8c-3.6,6.5-7.2,13.1-10.8,19.6c-29.4,53.6-58,107.5-84.4,162.6c-8.5,17.6-16.4,35.4-24.6,53.1
		c-0.8,1.8-1.7,3.4-1.3,5.5C1206.2,2501,1633.1,2501,2060,2501z"/>
	<path class="st15" d="M974.3,2130.5c-28.8,49.4-57.1,99.2-84.6,149.3c-29.4,53.6-58,107.5-84.4,162.6
		c-8.5,17.6-16.4,35.4-24.6,53.1c-0.8,1.8-1.7,3.4-1.3,5.5c76.3,0,152.5,0,228.8,0C957.1,2364,959.8,2229.1,974.3,2130.5z"/>
	<polygon class="st16" points="876.3,1046.5 913,1046.5 1064.5,1034.8 1002.6,994.3 925.7,972.4 899,972.4 882.8,1018.1 
		876.3,1030.3 	"/>
</g>
<g id="Layer_2">
	<g>
		<g>
			<path class="st17" d="M724.8,776.6c-1.4,9.3-4.3,16.2-8.7,23.8c-5.5,9.6-10.1,19.9-14.2,30.3c-4.2,10.4-7.9,20.9-12.1,31.1
				c-2.9,7.2-5.8,14.4-8,21.7c-4.2,13.7-7.6,27.7-8.5,41.7c-0.1,1.7-0.2,3.5-0.2,5.3l-0.1,5.4l0,2.7l0,2.7l0.1,5.4
				c0,3.6,0.3,7.2,0.5,10.8c0.1,3.6,0.5,7.2,0.8,10.8c0.1,1.4,0.2,2.7,0.3,4c0.1,1.3,0.3,2.6,0.4,3.9c0.3,2.6,0.5,5.1,0.8,7.6
				c0.6,5,1.2,9.8,1.9,14.6c1.4,9.7,3,19.3,5.1,30.3c1.8,9,2.2,19,1.7,25.2c-0.2,2.6-1.9,3.6-3.4,1.8c-1.1-1.4-2.4-2.8-3.2-4.6
				c-3.7-7.9-5.3-16.4-7-25.6c-1.6-8.6-2.1-16.3-3.5-24.9c-2.6-16-4.5-32.2-5.6-48.6c-0.2-2.9-0.3-5.8-0.4-8.6
				c-0.1-2.9-0.2-5.8-0.1-8.7l0.1-5.3l0.1-2.7l0.2-2.8c0.1-1.8,0.2-3.7,0.5-5.5c0.2-1.8,0.4-3.6,0.7-5.4c1.1-7.2,2.7-14.2,4.5-21.1
				c3-11.7,6.9-23,11.2-34.1c2.8-7.3,9.2-22.2,16.1-36.1c6.9-13.9,14.1-26.9,16.7-31.2C715.2,784.6,719.5,781.2,724.8,776.6z"/>
		</g>
	</g>
	<g>
		<g>
			<path class="st17" d="M1633.7,1546c-2.8-12.3-5.5-24.7-7.5-37.1c-0.8-5.1-0.9-10.3-0.8-15.4c0-1.5,1.5-3.1,2.6-3.7
				c0.5-0.2,1.7,2,2.6,3.2c0.2,0.3,0.3,0.8,0.4,1.2c3,11.6,7.1,23,9.8,34.7c5.9,25.2,13.3,49.9,20,74.9c3.8,14.1,9,27.8,14.4,41.4
				c4.5,11.6,9.8,22.9,15.1,34.1c1.2,2.5,2.2,5.1,3.3,7.7c1,2.6,2,5.2,2.8,7.8c1.3,4.1,3.1,7.9,5,11.8c2,3.8,4.1,7.5,6.4,11.2
				c7,11.3,14.5,22.3,23,32.6c0.8,1,1.4,3.3,1,4c-0.4,0.7-2.3,0.8-3.4,0.1c-1.5-1-3.1-2-4.7-3.2c-1.5-1.1-3-2.4-4.2-3.8
				c-9.9-11.3-18.5-23.7-26.3-36.4c-4.8-7.9-9.1-16.1-13.4-24.3c-1.2-2.3-2.4-4.6-3.6-6.9l-3.4-7l-1.7-3.5l-1.6-3.5l-3-7.1
				c-3.9-9.6-7.4-19.2-10.4-29.1c-5.5-17.5-11.1-35-15.8-52.8c-2.7-10.1-5.1-20.3-7.4-30.6C1633.2,1546.1,1633.5,1546.1,1633.7,1546
				z"/>
		</g>
	</g>
	<g>
		<g>
			<path class="st17" d="M1069.5,1967.7c-0.3-3.4-0.5-6.2-0.3-8.9c0.2-2.6,0.7-5.1,1.6-7.8c1-3.4,1.6-7,1.8-10.6
				c0.2-3.6,0.2-7.3-0.1-11c-0.5-7.3-1.6-14.6-2.1-21.9c-0.2-2.6-0.3-5.1-0.6-7.7c-0.3-2.6-0.5-5.1-0.9-7.7
				c-1.6-9.5-3.7-19-6.2-28.4c-1.2-4.7-2.7-9.3-4.2-14l-2.4-6.9l-1.2-3.4l-1.3-3.4c-5.5-13.8-9.9-24.2-16.8-37.6
				c-0.7-1.4-1.3-2.8-1.8-4.3c-0.5-1.5-1-3-1.3-4.5c-0.7-3-1-5.8-0.9-8.1c0.1-1.9,1.8-3.2,3.5-2.5c1.3,0.5,2.8,1.1,3.8,2
				c2.3,2.1,4.1,4.4,5.7,7c1.6,2.5,2.8,5.3,4.3,8.2c2.7,5.3,4,10.4,6.6,15.7c4.8,10,9.2,20.1,13.2,30.5c1.5,3.6,2.8,7.3,3.9,11.1
				c2.6,9.3,4.9,18.7,6.6,28.2c1.5,8,2.9,16.1,3.6,24.2c0.4,5.3,1.1,16.6,0.1,27.4c-0.4,5.4-1.2,10.7-2.2,15c-0.9,4.3-2,7.7-2.6,9.4
				c-0.8,2.4-2.2,4.2-3.9,5.8C1073.8,1965.1,1071.8,1966.5,1069.5,1967.7z"/>
		</g>
	</g>
	<g>
		<g>
			<g>
				<path class="st18" d="M1475.6,1401.8c2,4.6,4.8,8.8,7.9,12.4c3.1,3.6,6.7,6.7,10.6,9c1.9,1.2,4,2.1,6,3c1.1,0.3,2.1,0.8,3.1,1.1
					c1.1,0.3,2.1,0.6,3.2,0.8c4.3,0.9,8.7,1.2,13.1,1c8.9-0.4,17.7-2.8,26.5-6c4.2-1.7,8.4-3.5,12.2-6.1l1.5-0.9
					c0.5-0.3,0.9-0.7,1.4-1c0.9-0.7,1.9-1.3,2.8-2.1c0.9-0.8,1.7-1.5,2.6-2.3c0.9-0.8,1.6-1.7,2.5-2.5l0.8-0.8
					c0.3-0.3,0.5-0.6,0.8-0.9l1.5-1.8c0.5-0.6,0.9-1.3,1.4-1.9l1.4-2c0.8-1.4,1.6-2.7,2.4-4.1l1.1-2.2l0.5-1.1l0.5-1.1
					c2.5-5.9,4.1-12.3,4.9-18.9c0.8-6.6,1-13.3,0.5-20c-0.2-3.3-0.6-6.7-1.1-10c-0.3-1.7-0.5-3.3-0.9-5l-0.5-2.5l-0.4-1.8
					c-0.2-0.7-0.4-1.5-0.5-2.2c0.3-0.8,0.5-1.5,0.7-2.1l0.3-0.9l0.1-0.4l0.2-0.4l0.5-0.8l0.5-0.9l1-1.9l1.8-1.6
					c0.4-0.4,0.8-0.8,1.2-1.2l2.3-2.4c1.6-1.5,3-3.4,4.5-5.1l4.4-5.3c1.4-1.8,2.8-3.7,4.2-5.6l4.2-5.6c1.4-1.9,2.8-3.7,4.1-5.7
					l7.9-11.7l3.9-5.8l1-1.5l0.9-1.5l1.9-3l7.5-12l7.5-12l7.2-12.2c4.8-8.1,9.6-16.3,14.3-24.4c4.5-8,8.6-16.2,12-24.6
					c6.8-16.9,11.2-34.6,12.5-52.5c1.3-17.5-0.6-35.3-6.4-51.7c-1.4-4.1-3.1-8.1-5.1-11.9c-2-3.8-4.2-7.6-6.6-11.1
					c-4.9-7-10.8-13.3-17.7-18.4c-8.5-6.3-18.4-10.7-28.8-12.8c-10.4-2.1-21.3-1.9-31.9,0.1c-5.3,1-10.6,2.4-15.8,4.3
					c-2.6,1-5.2,1.9-7.8,2.9l-7.6,3.3c-10,4.7-19.6,10.4-28.5,17c-17.9,13.2-33,30.1-45.2,48.9c-3,4.7-6,9.5-8.6,14.4
					c-2.7,4.9-5.2,9.9-7.6,15c-2.3,5.1-4.5,10.3-6.5,15.5c-1,2.6-1.9,5.3-2.8,7.9l-0.3,1l-0.2,0.7l-0.3,0.9
					c-0.4,1.3-0.8,2.5-1.1,3.8l-2,7.8c-36.9-11.8-73.7-23.5-110.5-35.2l0-7l0-5.2l-0.1-7.7c-0.1-5.1-0.2-10.2-0.2-15.3
					c-0.6-26-1.7-50.4-3.7-73.9c-1-11.7-2.3-23.2-4.1-34.4c-0.9-5.6-2-11.1-3.4-16.4c-0.7-2.6-1.5-5.2-2.4-7.5
					c-0.8-2.2-2.2-4.9-3.4-7.4c-5-10.1-10.6-20-16.7-29.7c-6.1-9.7-12.6-19.3-19.7-28.8c-7-9.5-14.5-18.9-22.6-28.1
					c-8.1-9.3-16.6-18.5-26-27.5c-1.9-1.9-3.9-3.7-5.8-5.5l-2.9-2.8c-1-0.9-1.9-1.8-3-2.9l-6.1-6l-1.5-1.5c-0.5-0.5-1-1.1-1.4-1.6
					l-2.8-3.2c-3.9-4.2-7.2-8.7-10.7-13.1c-3.2-4.6-6.4-9-9.1-13.7c-11.2-18.3-17.9-36.7-21.2-50.8c-1.4-5.9-1.4-9.7-0.8-10.9
					c0.3-0.6,0.7-0.4,1.3,0.4c0.6,0.8,1.3,2.3,2.2,4.6c2.9,6.8,6.4,13.7,10.4,21.6c4.4,8.7,9.3,17.1,14.7,25.3
					c5.5,8.1,11.5,16,18,23.5c1.6,1.9,3.4,3.7,5.1,5.5l2.6,2.8c0.8,0.9,1.8,1.8,2.7,2.6c1.8,1.7,3.7,3.5,5.5,5.3
					c1.8,1.8,3.9,3.6,5.8,5.4c3.9,3.6,7.7,7.4,11.6,11.2c1.9,1.9,3.8,3.9,5.7,5.9c1.9,2,3.8,3.9,5.6,6c14,15.2,26.1,30.4,37.1,46.3
					c5.6,7.9,10.9,16,16,24.4c5.2,8.4,10.1,17.1,14.9,26.4c0.9,1.7,1.7,3.4,2.6,5.1l1.2,2.6l0.6,1.3l0.6,1.4
					c1.7,3.8,2.7,7.6,3.8,11.4c2,7.5,3.3,15,4.4,22.5c2.2,15,3.6,30,4.7,45c1.1,15,1.8,30,2.3,44.9c0.3,7.5,0.5,15,0.6,22.5
					l0.2,11.2l0.1,5.5l0,0.6l0,0.2l0.3,0.1l0.1,0l0.1,0l0.6,0.2l5.7,1.8l11.5,3.6l23,7.2c15.7,4.9,31.3,9.8,47,14.7c0,0,0,0,0,0
					c0,0,0,0,0,0l0.4-1.4c0.3-1,0.6-1.9,0.9-2.8c1.3-3.8,2.7-7.5,4.1-11.2c6.3-15.7,14.2-30.7,23.7-44.7c4.7-7,9.8-13.8,15.4-20.2
					c5.6-6.4,11.5-12.5,17.8-18.2c6.4-5.7,13.1-10.9,20.1-15.7c1.8-1.2,3.6-2.3,5.4-3.4c0.9-0.6,1.8-1.2,2.7-1.7l2.8-1.6
					c1.9-1,3.7-2.1,5.6-3.1l5.7-2.9c1.9-1,3.9-1.8,5.8-2.6c2-0.8,3.9-1.7,5.9-2.5l6-2.2c1-0.4,2-0.8,3-1.1l3.1-1
					c2.1-0.6,4.2-1.2,6.3-1.7c2.1-0.5,4.2-1,6.4-1.4c4.3-0.8,8.6-1.4,13-1.6c14.8-1,30,1.6,43.6,8.1c13.6,6.4,25.2,16.5,33.9,28.5
					c8.7,12,14.7,25.6,18.1,39.7c1.7,7.1,2.9,14.2,3.5,21.4c0.6,7.2,0.7,14.4,0.3,21.6c-0.7,12.3-3.2,28.9-9.5,47
					c-3.1,9-7.1,18.4-12,27.8c-1.3,2.3-2.5,4.7-3.8,7c-0.7,1.2-1.3,2.3-2,3.5c-0.7,1.1-1.4,2.2-2.1,3.4c-2.8,4.5-5.5,9.1-8.4,13.7
					c-2.8,4.6-5.6,9.2-8.5,13.9c-1.4,2.3-2.8,4.7-4.3,6.9c-1.5,2.3-3,4.6-4.5,6.9c-3,4.6-5.9,9.1-8.9,13.6c-1.5,2.2-2.9,4.5-4.4,6.7
					c-1.5,2.2-3.1,4.4-4.6,6.5c-3,4.3-6,8.6-8.9,12.7c-3,4.1-6.1,8-9.1,11.9c-2.9,3.9-6.1,7.5-9.1,11c-0.8,0.9-1.5,1.7-2.3,2.6
					c-0.8,0.8-1.6,1.7-2.5,2.5c-0.8,0.8-1.6,1.6-2.4,2.4l-0.6,0.6c-0.2,0.2-0.4,0.4-0.5,0.5l-0.7,0.6c-0.3,0.2-0.4,0.4-0.6,0.5
					c0,0-0.1,0-0.1,0.1l0,0.1c0,0.1,0,0.1,0,0.2c0,0.1,0.1,0.2,0.1,0.3c0.1,0.5,0.2,1,0.3,1.5c0.2,1,0.4,2,0.6,3
					c0.4,2,0.7,4,0.9,5.9c0.5,3.9,0.9,7.7,1,11.4c0.3,7.4,0,14.4-0.9,20.9c-0.9,6.5-2.5,12.6-4.5,18.1c-2,5.5-4.7,10.3-7.5,14.5
					c-1.4,2.1-3,4-4.4,5.8c-0.8,0.9-1.6,1.7-2.3,2.5c-0.8,0.8-1.5,1.6-2.3,2.3c-1.6,1.4-3.1,2.8-4.7,3.9c-1.6,1.1-3,2.3-4.5,3.1
					c-0.7,0.5-1.5,0.9-2.2,1.3c-0.4,0.2-0.7,0.4-1,0.6c-0.4,0.2-0.7,0.4-1,0.5c-1.4,0.7-2.7,1.3-3.9,2c-1.2,0.6-2.4,1-3.5,1.5
					c-1.1,0.4-2.1,0.9-3.1,1.2c-8.1,2.8-16,4.5-23.7,4.9c-7.7,0.5-15.3-0.6-22.2-3.2c-6.9-2.7-13-7-17.7-12.7
					c-2.3-2.8-4.4-5.9-6.1-9.2C1477.8,1409.2,1476.4,1405.6,1475.6,1401.8z"/>
			</g>
		</g>
		<g>
			<g>
				<path class="st18" d="M1577.6,1406.3c9.3,14.2,18.3,28.1,27.1,41.9c4.3,6.7,8.6,13.4,12.8,20c1.2,1.8,2.4,3.6,3.6,5.4l1.6,2.4
					l0.7,1.1l0.4,0.5l0.1,0.1c0,0,0.1,0.1,0.1,0l0-0.4c0-2.3,0-4.4,0-6.4l0.1-2.9l0-1.4l0-0.7l0-0.3l0-0.8c0.5-8,1.2-16,2.1-23.9
					c1.7-15.9,4.1-31.7,7.2-47.6c0.8-4,1.7-7.9,2.5-11.9c0.4-2,0.9-4,1.3-6c0.5-2,1-4,1.5-5.9c1-4,2-7.9,3-11.9
					c1.2-3.9,2.3-7.9,3.5-11.9c0.6-2,1.2-4,1.8-6c0.7-2,1.3-4,2-5.9c1.3-4,2.7-7.9,4.1-12c1.5-3.9,3.1-7.9,4.6-11.9
					c0.8-2,1.6-4,2.4-6c0.9-2,1.8-3.9,2.6-5.9l5.1-11.2c1.7-3.7,3.6-7.4,5.4-11c3.7-7.3,7.4-14.5,11.3-21.7
					c7.7-14.4,15.6-28.7,23.6-42.9c16.1-28.4,32.6-56.7,49.1-85c16.5-28.3,33-56.6,48.9-85.2c7.9-14.3,15.7-28.7,22.6-43.3
					c1.7-3.7,3.3-7.3,4.7-11l0.5-1.4l0.5-1.3l0.9-2.7c0.4-1.7,0.9-3.3,1.2-5.2c0.5-3.8,0.9-7.8,1.1-11.8c0.3-4,0.4-8.1,0.6-12.1
					c0.6-16.3,0.5-32.6,0.3-49c-0.3-16.4-0.8-32.7-1.6-49c-1.6-32.7-4.1-65.3-8.2-97.5c-2-16.1-4.5-32.2-7.7-47.9
					c-1.6-7.9-3.4-15.7-5.6-23.3c-1.1-3.8-2.3-7.6-3.6-11.3c-1.3-3.7-2.7-7.3-4.3-10.7c-0.4-0.9-0.8-1.7-1.2-2.5
					c-0.4-0.8-0.8-1.7-1.3-2.4l-0.7-1.2l-0.3-0.6l-0.4-0.6l-1.6-2.5c-2.2-3.3-4.3-6.7-6.7-9.8l-3.5-4.8c-1.2-1.6-2.4-3.1-3.7-4.6
					l-1.8-2.3l-0.9-1.1l-1-1.1l-3.9-4.3l-1-1.1l-1-1l-2.1-2c-1.4-1.3-2.7-2.7-4.2-3.9c-1.5-1.2-2.9-2.5-4.4-3.7l-4.6-3.3
					c-6.2-4.2-12.9-7.6-19.9-9.9c-5-1.6-10.1-2.8-15.5-3.5c-1.3-0.2-2.7-0.4-4-0.5c-1.4-0.1-2.7-0.3-4.1-0.4l-4.2-0.3
					c-1.4-0.1-2.7-0.2-4.1-0.2c-11.1-0.4-22.4-0.1-33.7,0.4c-22.6,1.1-45.2,3.4-67.6,6.7c-11.2,1.6-22.4,3.6-33.5,5.7
					c-11.1,2.2-22.2,4.6-33.2,7.2c-22,5.4-43.8,11.7-65.2,19.2c-19.9,7-39.5,14.9-58.7,23.7c-4.8,2.2-9.5,4.5-14.3,6.8l-14.4,7.1
					l-3.6,1.8l-3.6,1.7l-7.3,3.4c-4.9,2.3-9.8,4.4-14.7,6.6c-39.4,17.2-80.3,31.1-122.4,40.5c-21,4.7-42.3,8.3-63.8,10.4
					c-21.5,2.1-43.1,2.8-64.8,1.9l-4.1-0.2l-4.1-0.3l-8.1-0.6c-1.4-0.1-2.7-0.2-4-0.4l-4-0.4c-2.7-0.3-5.4-0.6-8.1-0.9
					c-10.7-1.5-21.5-3.3-32-5.8c-2.6-0.6-5.3-1.2-7.9-1.9l-7.9-2.2l-3.9-1.1l-3.9-1.2l-7.8-2.5c-2.6-0.8-5.1-1.9-7.7-2.8l-3.8-1.4
					c-1.3-0.5-2.6-0.9-3.8-1.5l-7.5-3.2c-1.2-0.5-2.5-1-3.8-1.6l-3.7-1.8l-7.4-3.5c-2.4-1.2-4.8-2.6-7.2-3.8
					c-4.9-2.6-9.4-5.1-14.1-7.7c-4.6-2.6-9.3-5-14-7.5c-4.7-2.4-9.4-4.9-14.1-7.2c-4.7-2.3-9.5-4.7-14.3-6.9
					c-2.4-1.1-4.8-2.3-7.2-3.3l-7.2-3.2c-2.4-1.1-4.8-2.1-7.3-3.1l-7.3-3.1l-7.3-2.9l-3.7-1.5l-3.7-1.4l-7.4-2.8l-7.5-2.6
					c-5-1.8-10-3.3-15-4.9c-2.5-0.8-5-1.5-7.6-2.2c-2.5-0.7-5-1.5-7.6-2.1l-7.6-2l-7.7-1.8l-3.8-0.9L802,634
					c-2.6-0.5-5.1-1.1-7.7-1.5c-5.2-0.9-10.3-1.8-15.5-2.5c-5.2-0.8-10.4-1.2-15.6-1.8c-2.6-0.2-5.2-0.3-7.8-0.5
					c-1.3-0.1-2.6-0.2-3.9-0.2l-3.9-0.1l-3.9-0.1c-1.3,0-2.6-0.1-3.9,0l-7.8,0.1c-2.6,0.1-5.2,0.3-7.8,0.5c-2.6,0.1-5.2,0.4-7.7,0.7
					c-5.2,0.5-10.3,1.4-15.3,2.2l-7.6,1.6c-1.3,0.2-2.5,0.6-3.8,0.9l-3.7,1c-1.2,0.3-2.5,0.6-3.7,1l-3.7,1.2
					c-2.4,0.8-4.9,1.5-7.3,2.5c-2.4,1-4.8,1.8-7.2,2.9l-7,3.2c-1.2,0.5-2.3,1.2-3.4,1.8l-3.4,1.8c-1.1,0.6-2.3,1.2-3.4,1.9l-3.3,2
					c-2.2,1.4-4.4,2.6-6.5,4.2l-0.4,0.3l-0.2,0.1l-0.4,0.2l-1.5,0.8l-2.9,1.5l-2.9,1.5l-1.5,0.8c-0.1,0.1-0.2,0.1-0.4,0.2
					c-0.1,0-0.2,0-0.3,0c-0.2,0-0.5,0-0.8-0.1c-2.1-0.4-3.7-1.6-5.2-3.2c-1.5-1.7-2.7-3.8-3.7-6l-0.4-0.8l-0.3-0.7l-0.4-1
					c-0.3-0.7-0.6-1.4-0.8-2.1c-0.5-1.4-1-2.7-1.4-4.1c-1.7-5.5-2.9-11-3.6-16.6c-1.5-11.1-1.5-22.5,0.3-33.6
					c1.7-11.1,5.2-22.1,10.4-32.1c5.2-10.1,12.1-19.3,20.1-27.1c12.2-12,26.7-20.9,41.5-27.5c14.9-6.6,30.3-11.1,45.7-14.3
					c7.7-1.6,15.4-2.9,23-3.9l2.9-0.4l2.9-0.3c1.9-0.2,3.8-0.4,5.7-0.6c1.9-0.2,3.8-0.4,5.7-0.6c1.9-0.2,3.8-0.4,5.7-0.5
					c7.6-0.4,15.2-1,22.7-1c3.8,0,7.5-0.2,11.3-0.1c3.8,0.1,7.5,0.2,11.2,0.3c1.9,0.1,3.7,0.1,5.6,0.2c1.9,0.1,3.7,0.2,5.6,0.3
					c3.7,0.2,7.4,0.5,11.1,0.7c3.7,0.4,7.4,0.7,11.1,1.1l5.5,0.5c1.8,0.2,3.7,0.5,5.5,0.7c3.7,0.5,7.3,0.9,10.9,1.4
					c3.6,0.5,7.2,1.1,10.9,1.7c7.2,1.1,14.4,2.4,21.5,3.7c3.6,0.6,7.1,1.4,10.7,2.1c3.5,0.7,7.1,1.5,10.6,2.2
					c3.5,0.8,7,1.6,10.6,2.4l5.3,1.2l5.3,1.3l10.5,2.6c3.5,0.9,7,1.8,10.5,2.7c7,1.8,13.9,3.7,20.8,5.5c27.7,7.5,55.2,15.7,83,23.4
					c27.8,7.8,55.9,15.2,84.7,21.3c28.8,6.2,58.4,10.8,88.9,13l2.9,0.2l2.9,0.1c1.9,0.1,3.8,0.2,5.7,0.3c1.9,0.1,3.8,0.2,5.8,0.3
					l2.9,0.1l2.9,0c3.9,0,7.7,0.1,11.6,0.1l2.9,0c1,0,1.9,0,2.9-0.1c1.9-0.1,3.9-0.1,5.9-0.2c2-0.1,3.9-0.1,5.9-0.2
					c2-0.1,3.9-0.1,5.9-0.2c4-0.2,8-0.4,12-0.6c8-0.4,16.1-0.9,24.3-1.3c26.8-1.6,54.2-3.2,81.3-4.8c27.1-1.6,54.1-3,79.9-3.7
					c25.8-0.7,50.7-0.5,73.4,1.6c11.4,1,22.2,2.5,32.3,4.5c10.1,2,19.5,4.5,28,7.3c14.2,4.6,22.2,9.3,24,10.8c0.9,0.8,0.3,1-1.9,0.5
					c-1.1-0.3-2.7-0.7-4.6-1.3c-2-0.6-4.4-1.3-7.2-2.2c-17.5-5.2-36.3-8.4-58.5-10.2c-24.2-1.9-48.8-1.5-73.5-0.5
					c-24.8,1.1-49.7,2.8-75.1,4.5c-25.3,1.7-51,3.5-77.1,5.1c-13.1,0.8-26.2,1.5-39.5,2.3c-6.6,0.3-13.3,0.7-20,1
					c-3.4,0.1-6.8,0.2-10.2,0.3c-1.7,0-3.4,0.1-5.1,0.1l-2.6,0.1l-2.6,0c-25.7,0.1-50.5-2-74.6-5.4c-24.1-3.4-47.5-8.1-70.7-13.6
					c-46.4-11-91.8-25.1-140.6-38.5c-45.1-12.4-90.6-23.6-136.8-29c-23.1-2.7-46.3-3.9-69.4-3.1c-5.8,0.2-11.5,0.6-17.3,1
					c-5.8,0.5-11.5,1.2-17.3,1.7c-11.5,1.4-22.8,3.4-34,6.1c-11.1,2.7-22,6.2-32.5,10.6c-10.4,4.4-20.3,9.9-29.2,16.6
					c-8.9,6.7-16.7,14.6-22.9,23.7c-6.2,9-10.7,19.2-13.3,29.8c-2.6,10.7-3.4,21.8-2.4,32.8c0.5,5.5,1.4,11,2.8,16.2
					c0.7,2.6,1.5,5.2,2.4,7.6c0.2,0.6,0.5,1.2,0.7,1.8l0.1,0.2l0,0.1c0.1,0.1,0.1,0.2,0.2,0.3c0.1,0.1,0.2,0.1,0.3,0l0.3-0.2
					l3.1-2.2l3.9-2.4c2.6-1.6,5.2-3.3,7.9-4.7l4-2.2l2-1.1c0.7-0.3,1.4-0.6,2.1-1c2.8-1.3,5.5-2.6,8.3-3.8l8.5-3.4l8.7-2.9
					c1.4-0.5,2.9-0.8,4.4-1.3l4.4-1.2c2.1-0.6,4.2-1,6.3-1.5l6.3-1.3l6.3-1c2.1-0.3,4.2-0.7,6.3-0.9c4.2-0.5,8.5-1,12.7-1.2l6.4-0.4
					l6.4-0.1c17-0.3,34,1.1,50.7,3.8c33.4,5.3,65.8,15.3,96.8,27.7c9.6,3.8,19,7.9,28.3,12.1c4.6,2.2,9.3,4.3,13.9,6.6
					c4.6,2.3,9.2,4.5,13.8,6.9l6.8,3.5l6.8,3.6c4.5,2.4,9,4.9,13.5,7.4l3.4,1.9l3.3,1.8l6.5,3.5l1.6,0.9l1.7,0.8l3.3,1.6
					c2.2,1.1,4.5,2.1,6.7,3.2c18.1,8,37.1,14.2,56.4,18.5l3.6,0.8c1.2,0.3,2.4,0.5,3.7,0.7l7.3,1.4c2.4,0.5,4.9,0.8,7.4,1.2l7.4,1.1
					l7.4,0.8c2.5,0.3,4.9,0.6,7.4,0.8l7.5,0.6l3.7,0.3c1.2,0.1,2.5,0.1,3.7,0.2c39.9,1.9,80.1-2.2,119.3-10.4
					c39.3-8.3,77.8-20.7,114.9-36.1c15.7-6.5,31.1-13.6,46.3-21.1l11.6-5.7l5.8-2.9l5.9-2.7c3.9-1.8,7.8-3.7,11.8-5.3
					c4-1.7,7.9-3.5,11.9-5.1c31.9-13.3,64.9-23.9,98.4-32.3c16.8-4.2,33.7-7.8,50.7-10.8c17-3,34.1-5.5,51.3-7.3
					c17.2-1.8,34.4-3.1,51.8-3.6c4.3-0.1,8.7-0.2,13-0.1c4.4,0,8.7,0.1,13.2,0.4c8.7,0.6,17.7,1.6,26.6,4.1c0.7,0.2,1.5,0.4,2.2,0.6
					c0.7,0.2,1.5,0.5,2.2,0.7c1.5,0.5,3,1,4.5,1.5c3,1.3,6.1,2.4,9,4.1c3.1,1.5,6,3.4,9,5.3c1.5,1,2.9,2.1,4.4,3.2
					c0.7,0.5,1.5,1.1,2.2,1.6c0.7,0.6,1.4,1.2,2.1,1.8c11.4,9.5,21.9,21.7,31.3,35.7c1.2,1.8,2.3,3.5,3.5,5.3
					c0.6,0.9,1.2,1.8,1.8,2.7c0.3,0.4,0.6,0.9,0.9,1.4l0.9,1.5c2.3,4.1,4.2,8.3,5.8,12.5c1.7,4.3,3.1,8.6,4.5,13.1
					c1.3,4.4,2.5,9,3.7,13.5c2.2,9.2,4.1,18.6,5.8,28.2c1.7,9.6,3.1,19.5,4.4,29.5c2.6,20.1,4.5,40.9,6.1,62.2
					c1.5,21.3,2.6,43.2,3.2,65.4c0.6,22.2,0.8,44.6,0.2,67.3c-0.2,5.7-0.4,11.3-0.7,17c-0.4,5.7-0.8,11.4-1.7,17.4
					c-0.1,0.8-0.2,1.5-0.4,2.3l-0.6,2.4c-0.4,1.6-0.9,3-1.4,4.4l-0.8,2.1l-0.8,2c-0.6,1.4-1.1,2.7-1.7,4.1
					c-2.3,5.3-4.8,10.5-7.4,15.5c-10.3,20.2-21.4,39.6-32.3,58.7c-11,19.1-22,37.7-32.7,55.9c-21.5,36.4-41.8,70.9-59.5,102.5
					c-17.7,31.6-33,60.2-42.9,85c-2.4,6.2-4.9,12.1-6.7,17.8c-1,2.8-1.9,5.6-2.8,8.3c-0.5,1.3-0.9,2.6-1.3,3.9
					c-0.4,1.3-0.8,2.6-1.1,3.8c-1.5,5-2.9,9.7-4.2,14c-1.1,4.3-2.1,8.2-3.1,11.7c-5.4,21.3-9.2,41.1-12.2,60.3
					c-0.8,4.8-1.4,9.5-2.1,14.2c-0.7,4.7-1.2,9.4-1.8,14c-0.2,1.2-0.3,2.3-0.4,3.5c-0.1,1.5-0.3,3-0.4,4.5c-0.2,1.7-0.3,3.3-0.5,5
					l-0.3,5.1l-0.3,4.9c-0.1,1.6-0.2,3.3-0.3,5l-0.5,9.6l-0.3,0c0,0,0,0-0.1,0l-0.1-0.2l-0.3-0.5l-1.1-1.8l-2.1-3.6
					c-1.4-2.4-2.7-4.8-4.1-7.1c-2.6-4.5-5.1-9-7.7-13.6c-3.9-7-7.8-14.1-11.8-21.3C1594.2,1436.5,1586.2,1421.8,1577.6,1406.3z"/>
			</g>
		</g>
		<g>
			<g>
				<path class="st18" d="M832.6,635.8c-3.3,4.3-6.3,8.1-9.6,11.5c-0.8,0.9-1.6,1.7-2.5,2.5c-0.8,0.8-1.7,1.7-2.6,2.5
					c-0.9,0.8-1.8,1.6-2.7,2.4c-0.9,0.8-1.9,1.6-2.8,2.5c-1.2,1-2.4,2.1-3.6,3.2c-1.2,1.1-2.3,2.2-3.5,3.4c-2.3,2.3-4.6,4.6-6.7,7.1
					c-2.1,2.5-4.3,4.9-6.3,7.5l-6,7.8c-7.7,10.6-14.9,21.5-22.1,32.2l-3.9,5.6c-0.6,0.9-1.3,1.9-1.9,2.8l-1.8,2.9
					c-2.4,3.9-4.9,7.7-7.2,11.6c-2.1,3.7-4.1,7.5-6.1,11.2c-2,3.7-4.1,7.4-5.9,11.3l-2.8,5.7l-1.5,3l-2.7,5.2l-2.6,5.2l-0.7,1.3
					l-0.2,0.3c0,0,0,0.1-0.1,0.1l-0.2-0.1l-0.6-0.3l-2.6-1.3c-1.7-0.9-3.4-1.6-5.1-2.6c-0.9-0.5-1.7-0.9-2.6-1.4l-2.2-1.3
					c-15.3-9.3-29.1-20.9-40.9-34.6c-4.4-5.2-8.2-10.5-11.6-15.8c-0.8-1.4-1.6-2.7-2.4-4c-0.8-1.3-1.5-2.7-2.2-4.1
					c-1.5-2.7-2.7-5.5-4-8.3c-0.6-1.4-1.1-2.9-1.7-4.3c-0.5-1.4-1.2-2.9-1.6-4.4c-0.9-3-2-5.9-2.7-9.1c-1.7-6.2-2.6-12.8-3.3-19.8
					c-0.1-2.9-0.2-5.9,0-8.8c0.1-1.5,0.3-2.9,0.5-4.3c0.1-0.7,0.2-1.4,0.3-2.1c0.1-0.7,0.2-1.4,0.4-2.1c0.6-2.7,1.3-5.2,2-7.5
					c0.9-2.3,1.7-4.3,2.6-6c1.4-2.8,3.6-3,4.4-0.4c0.6,2,1.3,4.1,1.5,6.3c0.5,5,0.6,9.8,0.8,14.7c0,2.5,0.2,4.9,0.3,7.5
					c0,2.5,0.5,5,0.7,7.6c0.6,4.8,1.3,9.3,2.3,13.8c0.2,1.1,0.5,2.2,0.8,3.3c0.3,1.1,0.6,2.2,0.9,3.3c0.7,2.2,1.6,4.4,2.5,6.7
					c3.7,8.3,8.4,16,13.9,23.2c0.7,0.9,1.4,1.8,2.1,2.7l2.2,2.6l1.1,1.3l1.1,1.2l2.3,2.5c3.2,3.2,6.4,6.4,9.8,9.4
					c4.8,4.2,10,8,15.1,11.8c3.2,2.3,6.5,4.5,9.8,6.5c0.1,0.1,0.2,0.3,0.3,0.2l0.1-0.1l0,0l0,0l0-0.1l0.1-0.2l0.3-0.7l0.7-1.4
					l2.8-5.6c0.9-1.9,1.8-3.7,2.8-5.6l3-5.5l5-9.2l1.3-2.3l1.3-2.3l2.7-4.5l5.4-9c1.9-3,3.9-5.9,5.8-8.8c1.3-1.9,2.9-4.4,4.8-7.1
					c2-2.7,4.3-5.8,6.7-9.2c2.4-3.4,5.3-6.8,8.1-10.3c1.4-1.8,2.8-3.6,4.4-5.3c1.5-1.7,3.1-3.5,4.6-5.2c1.5-1.7,3-3.5,4.6-5.1
					c1.6-1.6,3.1-3.2,4.6-4.8c3-3.2,6-6,8.7-8.6c5.5-5.1,10.1-8.9,12.5-10.8c1.7-1.3,3.3-2.4,5-3.3c1.7-0.9,3.3-1.7,5-2.4
					C825.1,637.6,828.6,636.6,832.6,635.8z"/>
			</g>
		</g>
		<g>
			<g>
				<path class="st18" d="M1726.3,590.1c-1.6-9.2-3.6-18-5.6-26.5c-2-8.6-4.2-16.9-6.5-25.1c-4.7-16.5-10.1-32.7-17.9-49.2
					c-1.2-2.6-2.6-5.1-3.9-7.7c-0.7-1.3-1.4-2.5-2.1-3.7l-1.1-1.9l-1.2-1.8c-3-4.9-6.4-9.5-10.1-13.9l-2.8-3.2c-1-1-1.9-2-2.9-2.9
					l-1.5-1.4l-1.6-1.4c-1.1-0.9-2.2-1.8-3.3-2.7c-4.5-3.6-9.3-6.9-14.3-10.2c-19.8-12.9-41-24.1-62.4-34.7
					c-21.5-10.5-43.3-20.4-65.3-29.7c-22-9.3-44-18.2-66.1-26.7c-31.1-11.9-62.5-23.1-94.5-32.4c-14.9-4.3-29.9-8.3-44.9-11.9
					c-15.1-3.6-30.2-6.7-45.4-9.3c-15.2-2.6-30.5-4.5-45.8-5.5c-7.6-0.5-15.3-0.8-22.9-0.7c-7.6,0.1-15.2,0.5-22.7,1.3
					c-30.7,3.5-61.1,9.3-90.6,17.9c-3.7,1-7.4,2.2-11,3.4l-11,3.6c-3.7,1.2-7.3,2.6-10.9,3.9c-3.6,1.3-7.3,2.6-10.9,4l-10.8,4.3
					l-5.4,2.1l-5.4,2.2c-7.2,3-14.3,5.9-21.5,9c-21.8,9.3-42.5,18-63,25.3c-20.6,7.3-41,13.1-61.7,17.8c-5.2,1-10.4,2-15.7,3
					c-2.6,0.5-5.2,1-7.9,1.5c-2.6,0.5-5.1,0.9-7.7,1.4c-5.1,0.9-10.2,2-15.4,3.1c-5.1,1.2-10.3,2.3-15.4,3.8
					c-5.2,1.3-10.3,2.9-15.5,4.4c-2.6,0.8-5.2,1.7-7.8,2.6c-2.6,0.9-5.2,1.9-7.8,2.8c-10.4,3.9-20.8,8.4-31,13.8
					c-16.8,8.9-33.4,19.9-46.5,32.4c-6.6,6.2-12.4,12.6-17.2,18.9c-4.8,6.3-8.7,12.4-11.7,17.9c-2.5,4.5-4.2,7.3-5.2,7.9
					c-0.5,0.3-0.8,0-0.9-0.9c-0.1-0.9,0-2.4,0.6-4.6c1.5-6.6,3.8-13.5,7.8-20.9c4.4-8.1,9.8-15.7,16-22.8c6.2-7,13.1-13.5,20.6-19.4
					c15-11.8,32.2-21.4,50.8-29.3c2.2-1,4.4-1.8,6.5-2.6c2.2-0.9,4.3-1.7,6.5-2.5c2.2-0.8,4.3-1.5,6.5-2.3c2.2-0.7,4.3-1.4,6.4-2.1
					c1.1-0.3,2.1-0.7,3.2-1c1.1-0.3,2.1-0.6,3.2-0.9c2.1-0.6,4.3-1.2,6.4-1.8c2.1-0.5,4.3-1.1,6.4-1.6c2.1-0.5,4.3-1.1,6.4-1.6
					c4.3-0.9,8.6-2,12.9-2.8c2.2-0.4,4.3-0.9,6.5-1.3c2.2-0.4,4.4-0.8,6.6-1.2c2.2-0.4,4.4-0.8,6.6-1.2c2.2-0.4,4.3-0.8,6.5-1.2
					c4.4-0.8,8.8-1.7,13.3-2.6l3.1-0.6l3.1-0.8l6.2-1.5L898,365l12.2-3.6l6.1-1.8c1-0.3,2-0.6,3-1l3-1l12.1-4.1c2-0.7,4-1.4,6-2.2
					l6-2.3c8-2.9,15.9-6.2,23.8-9.4c31.6-13.1,63-27.7,95.9-38.9c23.1-8.2,47-14.3,71.1-18.9l11.1-2c1.9-0.3,3.7-0.7,5.6-1l5.6-0.7
					l11.2-1.5l5.6-0.7c1.9-0.2,3.7-0.5,5.6-0.7c15.3-1.5,30.6-1.3,45.7-0.4c30.2,2.1,59.9,7.4,89.1,14.2c24.6,5.7,48.9,12.5,73,20.1
					c24,7.5,47.8,15.8,71.4,24.8c15.3,5.8,39,15.2,66,27.1c27,11.9,57.5,26.4,86.5,42.2c14.5,7.9,28.7,16.2,41.7,24.9
					c6.5,4.4,12.8,8.8,18.6,13.7c2.9,2.5,5.7,4.9,8.3,7.7c0.7,0.7,1.2,1.4,1.8,2.1c0.6,0.7,1.2,1.4,1.7,2c1.2,1.3,2.2,2.7,3.3,4.1
					c4.2,5.5,7.8,11,10.7,16.3c1.6,2.6,2.8,5.2,4.2,7.7c1.2,2.5,2.4,4.9,3.4,7.2c4.2,9.3,6.8,16.9,8.6,22.1
					c4.7,14.5,7.1,27.2,8.6,39.8c0.7,6.3,1.2,12.6,1.5,19.1C1726.4,576.3,1726.5,583,1726.3,590.1z"/>
			</g>
		</g>
		<g>
			<g>
				<path class="st18" d="M636.6,549.1c-3.6,0-6.7-1.1-9.1-2.9c-2.5-1.8-4.4-4.3-5.7-7.2c-3.5-7.5-5.4-15.7-5.3-24
					c0.1-4.1,0.5-8.2,1.5-12.1c0.2-1,0.5-1.9,0.8-2.9l0.4-1.4l0.5-1.4c0.4-0.9,0.7-1.8,1.1-2.8c0.4-0.9,0.9-1.8,1.3-2.6
					c0.7-1.4,1.5-2.6,2.2-3.9l0.6-1l0.3-0.5l0.5-0.8l2.1-3.3l2.1-2l0.5-0.5c0.2-0.1,0.4-0.2,0.6-0.4c0.4-0.2,0.9-0.4,1.4-0.6
					c1.9-0.6,3.8-0.4,5.8,0.1c1,0.2,2.1,0.6,3.1,1l1.4,0.5l0.8,0.3l3.3,1.3c2.1,0.8,4.3,1.6,6.4,2.3c4.3,1.4,8.6,2.6,13.1,3.6
					c8.9,2,18,3.1,27.1,3.4c7,0.3,13.1,0.2,19.3,0c6.2-0.2,12.4-0.7,19.5-1.5c5.8-0.6,12.3,0.5,16.3,2.2c1.7,0.7,2.3,2.8,1.1,4.2
					c-0.9,1.1-1.8,2.2-3,2.9c-5.2,2.9-10.8,3.4-16.9,4c-5.7,0.5-10.7,0-16.4,0.4c-10.6,0.8-21.2,0.8-32,0.1
					c-3.8-0.2-7.6-0.6-11.3-1.3c-9.2-1.7-18.4-4.3-27.1-7.7l-3.5-1.3l-1.6-0.6l-0.1-0.1c-0.1,0-0.2-0.1-0.4-0.1
					c-0.1,0-0.2,0.1-0.3,0.2l-0.2,0.2l0,0.1l-0.2,0.4l-0.5,0.8c-0.6,1.1-1.3,2.2-1.8,3.3c-1,2-2.6,5.2-3.9,9
					c-1.4,3.8-2.4,8.2-2.6,12.4c-0.1,1.1,0,2.1-0.1,3.2c0.1,1,0.1,2.1,0.3,3c0.2,2,0.7,3.8,1.2,5.4c1,3.3,2.4,5.7,3.1,6.9
					c1,1.7,1.5,3.4,2.1,5.3C635.1,544.6,635.5,546.8,636.6,549.1z"/>
			</g>
		</g>
	</g>
	<g>
		<g>
			<g>
				<path class="st18" d="M736.5,941.2c-2.8-2.5-4.6-4.9-6.4-7.2c-0.4-0.6-0.8-1.2-1.2-1.8c-0.4-0.6-0.7-1.3-1.1-1.9
					c-0.8-1.3-1.4-2.6-2.1-4c-3.5-7-8.8-13.2-14.7-18.5c-5.9-5.3-12.4-9.9-18.7-14.7l-1.7-1.3l-1.7-1.2c-1.1-0.8-2.2-1.6-3.4-2.4
					l-1.7-1.2l-0.9-0.6l-0.1-0.1l-0.1,0l-0.1-0.1l-0.5-0.4l-0.4-0.3l-0.2-0.1l-0.1-0.1l-0.1,0c0,0,0,0,0,0.1l-0.2,0.5l-0.1,0.3
					l-0.1,0.2l-0.2,0.6l-1.1,3.8c-0.7,2.5-1.4,5.1-2,7.7c-0.6,2.6-1.2,5.1-1.7,7.7L675,910l-0.6,3.9l-0.3,1.9l-0.2,1.9l-0.4,3.9
					l-0.2,3.9l-0.1,0.9l0,0.3l0,0.4c0,0.2,0,0.5,0,0.7l1-0.1c0.2,0,0.5-0.1,0.7-0.1c0.9,0,1.9-0.1,2.8-0.1c2,0,3.9-0.2,5.9-0.1
					c1.9,0,3.8,0,5.7,0c1.9,0.1,3.7,0.1,5.6,0.2c7.4,0.4,14.9,1.1,23.4,2.3c7,1,14.2,4.4,18,7.5c0.8,0.7,1.2,1.5,1.1,2.2
					c-0.1,0.7-0.6,1.3-1.5,1.5c-1.4,0.4-2.7,0.9-4.2,1c-6.4,0.3-12.4-1-19-1.9c-6.2-0.8-11.6-2.1-17.9-2.2c-2.9,0-5.8-0.1-8.7,0
					c-1.5,0-2.9,0-4.4,0.1l-4.3,0.2l-2.3,0.1l-4,0.3l-8.1,0.5l-1,0.1l-0.1,0c0,0,0-0.1,0-0.1l0-0.3l0-0.5l0-2.1l0-4.2l0-4.3l0.1-3.1
					l0.1-3.3c0-1.1,0.1-2.2,0.2-3.3l0.3-3.3c0.1-1.1,0.3-2.2,0.5-3.2c0.2-1.3,0.4-2.6,0.7-4l0.8-3.9c0.5-2.6,1.2-5.2,1.8-7.8
					c0.7-2.6,1.4-5.1,2.1-7.6l1.1-3.8l0.7-2.5c0.3-1.2,0.7-2.3,1.1-3.5l1.9-5.9l0.9-2.9l0.2-0.7l0-0.1c0,0,0.1,0,0.1,0l0.2,0.1
					l0.3,0.2l1.4,0.7l5.4,2.9l4.9,2.8l1.2,0.7l0.6,0.3l0.4,0.2l1.4,0.9c1,0.6,1.9,1.2,2.9,1.8c1.9,1.3,3.8,2.5,5.6,3.8
					c4.8,3.4,14.5,11.1,22.1,20.3c2,2.2,3.7,4.6,5.4,6.8c0.8,1.2,1.6,2.3,2.3,3.4c0.7,1.1,1.5,2.1,2,3.2c0.6,1,1.2,2,1.7,3
					c0.3,0.5,0.5,0.9,0.8,1.3c0.2,0.4,0.4,0.9,0.6,1.3c0.8,1.6,1.4,2.9,1.8,3.8c0.1,0.3,0.3,0.6,0.4,0.9c0.1,0.3,0.2,0.6,0.3,0.9
					c0.2,0.6,0.3,1.2,0.4,1.8c0.2,1.2,0.4,2.4,0.4,3.6C737.1,936.1,736.8,938.5,736.5,941.2z"/>
			</g>
		</g>
	</g>
	<g>
		<g>
			<path class="st17" d="M692.8,1447.4c-7.8-0.7-15.6-0.7-23.4-0.8c-3.2,0-6.4-0.5-9.5-1.1c-0.9-0.2-1.9-1.5-2.3-2.5
				c-0.2-0.4,1.3-1.3,2.1-2c0.2-0.2,0.5-0.2,0.8-0.2c7.6-1.5,15.4-3.2,23.2-3.1c8.4,0.1,16.9,0.5,25.3,1.7
				c8.4,1.2,16.9,3.3,24.9,6.8c2.3,1,4.3,1.8,6.4,2.7c2.1,0.9,4.3,1.6,6.4,2.3c4.3,1.5,8.7,2.7,13.2,3.9c7.5,2.1,15.2,3.6,22.8,5.1
				c3.4,0.6,6.8,1.7,10,2.8c5.1,2,10.4,2.5,15.8,2.8c8.3,0.3,16.6,0.2,24.5-1.7c0.8-0.2,2.3,0.3,2.6,0.9c0.4,0.6,0,2-0.6,2.5
				c-1,0.7-2,1.5-3.1,2.2c-1.1,0.6-2.3,1.1-3.5,1.4c-9.6,2.3-19.3,2.3-28.8,1.8l-4.4-0.3c-1.5-0.1-2.9-0.3-4.4-0.5
				c-2.9-0.3-5.9-0.7-8.8-1.1c-6.6-0.8-13-2-19.4-3.7c-6.4-1.6-12.6-3.7-18.8-6.1c-2.7-1.1-5.5-2.1-8.2-3.3
				c-1.3-0.5-2.8-1.1-4.1-1.6l-3.9-1.4c-0.6-0.2-1.3-0.5-1.9-0.7l-2-0.6l-4-1.2l-4.1-1l-2-0.5l-2.1-0.4c-6.2-1.3-12.6-2.2-19-2.8
				C692.8,1447.8,692.8,1447.6,692.8,1447.4z"/>
		</g>
	</g>
	<g>
		<g>
			<path class="st17" d="M816,1231c-1.3-3.5-2.9-6.9-4.6-10.3c-0.7-1.4-0.9-3.1-1.2-4.8c-0.1-0.5,0.8-1.7,1.5-2.5
				c0.3-0.3,1.4-0.1,2.1-0.1c0.2,0,0.3,0.2,0.4,0.3c3.1,2.8,6.4,5.6,8.3,9.4c2,4,3.8,8.2,5,12.6c1.2,4.4,1.7,9.1,1.2,13.7
				c-0.6,5.2-1,10.4-2.5,15.4c-1.2,4.3-2.8,8.5-5.1,12.2c-0.5,0.8-1.1,1.6-1.8,2.3c-0.7,0.7-1.5,1.3-2.4,1.8
				c-0.7,0.4-1.3,0.9-1.8,1.4c-0.6,0.4-1.1,0.9-1.7,1.4c-1,1-2,2.1-3,3.1c-0.8,0.8-1.5,1.6-2.3,2.4c-0.8,0.7-1.7,1.5-2.5,2.2
				c-1.7,1.5-3.5,2.7-5.3,4c-0.4,0.3-1.4,0-1.9-0.4c-0.5-0.5-1-1.8-0.9-2.2c0.3-1.4,0.6-2.9,1.3-3.7c0.8-0.8,1.5-1.7,2.2-2.6
				c0.7-0.9,1.5-1.7,2.2-2.6c1.4-1.8,2.8-3.5,3.9-5.3l1.2-1.7l1.1-1.7c0.4-0.6,0.7-1.1,1-1.7c0.3-0.6,0.6-1.2,0.8-1.8
				c1.2-2.7,2.2-5.4,3.3-8.1c0.2-0.7,0.5-1.4,0.7-2c0.1-0.3,0.3-0.7,0.4-1l0.3-1c0.2-0.7,0.5-1.4,0.7-2c0.2-0.7,0.4-1.4,0.6-2.1
				c0.2-0.6,0.3-1.3,0.4-1.9c0.1-0.6,0.2-1.3,0.3-1.9c0.1-1.3,0.2-2.6,0.2-3.9c0-2.6-0.3-5.2-0.8-7.8c-0.5-3-1.2-6-2.2-8.9
				C815.6,1231.1,815.8,1231,816,1231z"/>
		</g>
	</g>
	<g>
		<g>
			<path class="st19" d="M2060.3,2500c-4-31.9-7.6-61.6-11.3-91.3c-1.8-14.8-3.8-29.6-5.8-44.7c-2-15.1-4.1-30.5-6.5-46.4
				c-5.9-40.2-13.8-80.5-24.5-120.1c-5.3-19.8-11.3-39.4-18.2-58.7c-6.9-19.3-14.7-38.2-23.9-56.5l-7.1-13.5
				c-2.5-4.4-5.2-8.9-7.7-13.3l-7.7-13.3c-2.7-4.4-5.5-8.7-8.2-13l-8.2-13c-1.3-2.2-2.8-4.3-4.3-6.4l-4.3-6.4l-8.6-12.7l-2.2-3.2
				l-2.2-3.1l-4.5-6.3c-23.8-33.5-48.9-65.9-74.5-97.5l-13.6-16.7c-4.5-5.6-9.2-11-13.8-16.5l-6.9-8.3l-7-8.2
				c-4.7-5.4-9.3-10.9-14.1-16.3c-9.4-10.8-19-21.6-28.7-32.2c-4.8-5.3-9.7-10.6-14.6-15.8l-3.1-3.3c-0.2-0.2-0.3-0.4-0.5-0.3
				l-2.8,0.5l-5.2,1.1c-26.1,5.5-52,12.1-77.8,19.2l-9.7,2.7l-9.6,2.8c-6.4,1.9-12.9,3.7-19.2,5.7l-19.2,5.9l-19.1,6.2l-9.5,3.1
				l-9.5,3.3l-18.9,6.6l-18.8,6.9c-6.3,2.3-12.6,4.6-18.8,7.1l-18.7,7.3c-3.1,1.2-6.2,2.4-9.3,3.7l-9.3,3.9l-18.5,7.7
				c-3.1,1.3-6.1,2.7-9.2,4l-9.2,4.1l-18.3,8.2l-18.2,8.5c-12.1,5.7-24.3,11.4-36.4,17.2c-24.2,11.6-48.4,23.3-72.6,34.9
				c-24.3,11.6-48.7,23.1-74,33.1c-12.7,5-25.6,9.5-39,13c-6.7,1.6-13.5,3.2-20.5,4.2c-3.5,0.6-7,0.8-10.5,1.2
				c-1.8,0.2-3.5,0.2-5.3,0.3c-1.8,0.1-3.5,0.2-5.3,0.1c-10.8,0-21.6-1.6-31.7-4.6c-1.3-0.4-2.6-0.7-3.8-1.2
				c-1.2-0.5-2.5-0.9-3.7-1.3l-1.8-0.7l-0.9-0.3l-0.1-0.1l-0.6-0.2l-0.3-0.1c0,0-0.1-0.1-0.1,0l-0.1,0.1l-0.3,0.5
				c-0.9,1.4-1.7,2.8-2.6,4.2c-10.1,16.5-19.8,32.6-29.4,48.6c-19.1,31.9-37.4,62.9-55.5,94c-18.1,31.2-36.1,62.5-54.3,95.2
				c-4.6,8.2-9.2,16.4-13.8,24.7c-4.6,8.4-9.2,16.8-13.9,25.3c-2.3,4.3-4.7,8.6-7.1,12.9c-2.4,4.3-4.8,8.7-7.1,13.1
				c-4.7,8.8-9.5,17.8-14.4,26.9c-15.9,29.8-32.5,61-47.7,89.6c-15.1,28.6-28.8,54.7-38.9,74.3c-8.6,16.3-12.5,19.2-7.6,4.9
				c1.9-5.5,3.8-11.1,5.9-16.9c1.1-2.9,2.2-6,3.3-9.1c1.2-3.1,2.4-6.3,3.8-9.6c6.1-14.2,12.4-28.5,19-42.7
				c6.8-14.2,13.6-28.4,20.8-42.8c7.3-14.3,14.7-28.7,22.3-43.4c7.8-14.5,15.7-29.3,23.7-44.4c30.6-56.3,58.8-104.2,90.7-159.7
				c7.3-12.9,14.8-25.6,22.3-38.4l22.5-38.3c7.6-12.7,15.1-25.5,22.7-38.2l11.4-19.1l11.9-19.6l5.4-8.8l0.7-1.1l0.3-0.5
				c0-0.2,0.2,0,0.3,0l0.3,0.1l2.3,1l4.7,2l4.7,2l2.5,0.9l2.4,0.9c0.8,0.3,1.6,0.6,2.5,0.8l5,1.4c1.7,0.4,3.4,0.7,5,1.1
				c1.7,0.4,3.4,0.6,5.1,0.8l2.6,0.4c0.9,0.1,1.7,0.1,2.6,0.2c1.7,0.1,3.4,0.3,5.2,0.4l5.2,0.1c1.7,0,3.5-0.1,5.2-0.2
				c0.9,0,1.7,0,2.6-0.1l2.6-0.3l2.6-0.3c0.9-0.1,1.7-0.2,2.6-0.3l5.2-0.8c1.7-0.3,3.5-0.7,5.2-1c1.7-0.3,3.5-0.7,5.2-1.1
				c13.9-3.3,27.6-7.9,41.2-13.3c13.6-5.3,27-11.3,40.3-17.4c18.8-8.7,37.5-17.8,56.3-26.9c18.7-9.1,37.5-18.3,56.4-27.2
				c23.2-11,46.4-21.9,70-32.2l8.8-3.9l4.4-2l4.5-1.9l17.8-7.4l8.9-3.7c3-1.2,6-2.4,9-3.6l18-7c48-18.6,96.9-34.7,146.4-48.9
				c20.9-5.9,41.9-11.4,63-16.4c5.3-1.2,10.6-2.5,15.9-3.6c2.7-0.6,5.3-1.2,8-1.7l4-0.8l4.4-0.9l7.6-1.4c0.1,0,0.3-0.1,0.5,0
				l0.3,0.3l0.7,0.7l1.3,1.4l2.6,2.8l6.1,6.5c3.7,4,7.4,7.9,11,11.9c14.6,16,29,32.1,43.2,48.5l10.6,12.3l10.5,12.4
				c7,8.2,13.8,16.7,20.7,25c17.8,21.9,45.1,56.1,74.3,97.8c14.8,20.7,29.5,43.7,44.1,67.7c3.5,6.1,7,12.3,10.5,18.4
				c1.7,3.1,3.5,6.2,5.3,9.3c1.6,3.2,3.3,6.4,4.9,9.6c0.8,1.6,1.7,3.2,2.4,4.8l2.3,4.9l4.5,9.8c1.4,3.3,2.8,6.6,4.2,9.9l2.1,5l1.9,5
				c10.4,26.6,18.9,53.6,25.7,79.5c6.8,25.9,12.2,50.8,16.5,73.4c8.6,45.2,13,81.3,15.2,99.6c3,25.6,4.4,47.6,5.2,69.3
				C2060.6,2454.2,2060.6,2475.6,2060.3,2500z"/>
		</g>
	</g>
	<g>
		<g>
			<path class="st17" d="M683.4,1274.2c-3.2-0.2-6.4-0.1-9.6-0.2c-1.3-0.1-2.6-0.7-4-1.4c-0.4-0.2-0.9-1.6-1.2-2.6
				c-0.1-0.4,0.5-1.3,0.8-1.9c0.1-0.1,0.2-0.1,0.3-0.2c3.2-1.2,6.4-2.8,9.7-3c7.1-0.4,14.2-0.6,21.1,1.3c1.9,0.5,3.9,0.9,5.9,1.2
				l3,0.4l2.9,0.6c3.3,0.6,6.7,1.2,10,2.2c1.4,0.5,2.8,1.4,4,2.5c0.9,0.9,1.9,1.6,2.9,2.1c1,0.6,2.1,1,3.2,1.4
				c3.4,1.2,6.6,2.9,9.7,4.6c0.3,0.2,0.5,1.2,0.2,1.8c-0.2,0.6-1.1,1.7-1.5,1.8c-1.2,0.4-2.5,0.9-3.4,0.7c-0.9-0.2-1.8-0.5-2.7-0.7
				l-1.4-0.4l-1.4-0.3l-5.4-1.4c-2.3-0.5-4.5-1.2-6.7-1.5c-2.6-0.3-5.1-0.8-7.6-1.3c-2.5-0.5-4.9-1.3-7.4-2
				c-1.1-0.3-2.2-0.6-3.3-0.9c-1.1-0.2-2.3-0.4-3.4-0.6c-2.3-0.4-4.6-0.5-6.9-0.8c-2.6-0.3-5.2-0.6-7.9-0.7
				C683.4,1274.7,683.4,1274.5,683.4,1274.2z"/>
		</g>
	</g>
	<g>
		<g>
			<path class="st18" d="M800.2,933.4c-1-0.3-1.4-1.1-1.8-1.7c-0.4-0.6-0.7-1.3-1-2c-0.6-1.3-1-2.7-1.4-4.1
				c-0.8-2.7-1.4-5.5-1.8-8.2c-0.8-5.5-1.2-10.9-0.9-16.4c0.2-2.8,0.5-5.5,1.1-8.4c0.3-1.4,0.7-2.9,1.3-4.3c0.3-0.7,0.6-1.5,1-2.2
				c0.2-0.4,0.4-0.7,0.7-1.2c0.3-0.4,0.7-0.9,1.1-1.3l0.6-0.6c0.2-0.2,0.4-0.3,0.5-0.4l0.5-0.4l0.5-0.3c0.7-0.5,1.3-0.8,2-1.2
				c1.3-0.7,2.6-1.4,4-2c2.6-1.2,5.3-2.2,8.1-3.2c6.9-2.4,13.9-4.5,20.9-6.6c7-2,14.1-4,21.1-5.8c14.2-3.7,28.4-7.2,42.8-10.4
				c14.4-3.1,28.8-6,43.5-7.9c3.7-0.5,7.4-0.9,11.1-1.2c3.8-0.3,7.5-0.5,11.6-0.2c1,0.1,2.2,0.2,3.2,0.4c1.1,0.2,2,0.4,3,0.7
				c1.9,0.5,3.8,1.1,5.6,1.7c3.6,1.3,7,2.7,10.4,4.2c9.5,4.2,18.6,8.9,27.6,13.8c9,4.9,17.9,9.9,26.8,14.9
				c16.5,9.4,32.9,19.2,49.1,29.1c8.1,5,16.2,10,24.2,15.1c4,2.6,8,5.1,12,7.8c2,1.3,4,2.6,6,4l3,2.1l1.5,1.1
				c0.3,0.2,0.5,0.4,0.9,0.7c0.2,0.1,0.3,0.3,0.6,0.5c0.1,0.2,0.3,0.2,0.7,0.8c0,0.1,0.3,0.4,0.4,0.7c0,0.7,1,0.9,0,3.8
				c-1.5,2.4-3.4,2.5-3.7,2.5c-0.6,0-0.6,0-1.1-0.1l-1.8-0.3l-1.9-0.4l-3.5-0.8l-6.9-1.8l-13.8-3.6c-9.2-2.4-18.3-4.7-27.5-6.9
				c-18.4-4.5-36.8-8.6-55.3-12.1c-14.1-2.7-27.4-4.8-40.2-6.2c-6.4-0.7-12.8-1.3-19-1.4c-6.2-0.2-12.4-0.1-18.3,0.6l-2.2,0.3
				c-0.7,0.1-1.4,0.2-2.2,0.4c-1.5,0.3-3.1,0.6-4.6,1c-3.1,0.6-6.1,1.4-9.2,2.1c-6.1,1.6-12.1,3.4-18,5.7
				c-5.9,2.3-11.5,5.2-16.7,8.9c-1.3,0.9-2.7,2-4.3,3.1l-1.3,0.9c-0.5,0.3-1.1,0.6-1.6,0.9c-0.5,0.3-1.3,0.5-1.9,0.8
				c-0.3,0.1-0.7,0.2-1,0.3c-0.3,0.1-0.8,0.2-1,0.2c-2.2,0.3-4,0.5-5.8,0.6c-1.9,0.1-3.7,0.2-5.5,0.3c-12.1,0.5-24.6,0.2-36.1-0.4
				c-11.5-0.6-21.9-1.6-29.8-2.9c-3.3-0.6-5.3-1.4-5.9-2.2c-0.2-0.4,0-0.6,0.6-0.7c0.6-0.1,1.5-0.3,2.8-0.4
				c4.1-0.3,8.3-0.9,13.3-1.1c10.9-0.5,21.9-0.8,33.1-1c5.6-0.1,11.3-0.2,17.1-0.4c2.9-0.1,5.8-0.2,8.7-0.4c1.4-0.1,2.9-0.2,4.3-0.3
				l1-0.1l0.9-0.1c0.4,0,0.7-0.2,1.1-0.4c0.4-0.3,0.8-0.4,1.4-0.8l0.7-0.5l0.8-0.6c0.6-0.4,1.1-0.8,1.7-1.2c0.6-0.4,1.1-0.8,1.7-1.2
				c1.2-0.8,2.4-1.6,3.6-2.4c1.2-0.7,2.5-1.5,3.7-2.1c5-2.7,10.1-4.8,15.2-6.5c1.3-0.5,2.6-0.9,3.9-1.3c1.3-0.4,2.6-0.8,3.9-1.2
				c2.6-0.7,5.2-1.5,7.9-2.1c1.3-0.3,2.7-0.6,4-0.9c1.3-0.3,2.7-0.6,4.1-0.9c1.4-0.3,2.7-0.6,4.1-0.9c1.4-0.3,2.8-0.6,4.3-0.8
				c1.4-0.2,2.7-0.5,4.1-0.6l4.1-0.4c1.4-0.1,2.7-0.1,4-0.2l2-0.1l2,0l4,0l4,0.1c2.7,0.1,5.3,0.3,8,0.4c10.6,0.8,21.1,2.1,31.5,3.7
				c20.8,3.2,41.4,7.5,61.8,12.1c14.4,3.3,28.8,6.7,43,10.4l13.1,3.4l6.5,1.6l1.6,0.4l1.5,0.3c0.5,0.1,1,0.2,1.6,0.3l0.4,0.1l0.1,0
				l0.1,0c0.8-4.2-1,5.7-0.8,4.8c0,0.1,0,0.1,0,0.2c0,0.1,0,0.2,0,0.2c0,0,0,0-0.1,0c0,0-0.2,0.1-0.2,0.1c-0.1,0.1-0.2,0.2-0.3,0.2
				c-0.3,0.2-0.5,0.4-0.8,0.7c-0.2,0.1-0.3,0.3-0.5,0.5l-0.5,0.5l-1.1,1.2c-0.3,0.3-0.2,0.2-0.2,0.2l0,0l-0.2-0.1
				c-0.6-0.5-1.6-1.2-2.5-1.8l-2.7-1.9l-5.6-3.7c-3.7-2.5-7.5-4.9-11.3-7.4c-15.2-9.7-30.5-19.2-46-28.5
				c-13-7.8-26.2-15.4-39.5-22.7c-13.3-7.3-26.7-14.4-40.3-20.6c-2.2-1-4.8-2.1-7.6-3.2c-2.8-1.1-5.9-2.2-9.1-3
				c-0.8-0.2-1.6-0.3-2.3-0.4c-0.3,0-0.8-0.1-1.2-0.1c-0.4,0-0.9-0.1-1.3-0.1c-1.8-0.1-3.7-0.1-5.6,0c-3.9,0.1-8.2,0.5-12.5,1
				c-17.5,1.9-37.5,5.6-57,9.7c-19.4,4.1-38.3,8.8-53.8,13.2c-7.7,2.2-14.5,4.4-20,6.5c-2.8,1-5.2,2-7.2,3c-1,0.5-1.9,0.9-2.6,1.4
				c-0.3,0.2-0.7,0.4-0.9,0.6c-0.3,0.2-0.4,0.4-0.5,0.4c-0.2,0.1-0.7,1.1-1.1,1.9c-0.4,0.8-0.7,1.7-1,2.6c-0.6,1.8-1.1,3.7-1.4,5.6
				c-0.8,3.8-1.2,7.5-1.6,11.2c-0.3,3.7-0.6,7.5-0.5,11.4c0,1.9,0.1,3.9,0.3,5.9c0.1,1,0.3,2,0.5,3.1c0.1,0.5,0.3,1,0.5,1.5
				c0.1,0.2,0.2,0.5,0.4,0.7c0.1,0.1,0.2,0.2,0.3,0.4C799.9,933.2,800,933.3,800.2,933.4z"/>
		</g>
	</g>
	<g>
		<g>
			<path class="st20" d="M695.6,986.8c2.6-0.1,5.2-0.3,7.8-0.1c1.1,0.1,2.2,1,3.3,2c0.3,0.3,0.7,2.2,0.8,3.6
				c0.1,0.6-0.4,1.6-0.6,2.4c-0.1,0.2-0.2,0.2-0.2,0.2c-2.4,1.3-4.6,3.5-7.1,3.9c-2.6,0.4-5.2,1-7.8,1.3c-2.6,0.3-5.2,0.6-7.9,0.2
				c-3-0.4-6,0.4-8.9,0.7c-1.3,0.2-2.5,0.4-3.8,0.7c-1.2,0.3-2.5,0.5-3.7,0.7c-1.1,0.1-2.3-0.3-3.6-1.1c-1.9-1.3-3.7-1.2-5.4-1
				c-2.7,0.4-5.5,0.4-8.2,0.4c-0.3,0-0.9-1-1.1-1.9c-0.2-0.9-0.2-2.6-0.1-3.1c0.5-1.3,1.1-2.6,1.8-3c2.9-1.3,5.8-2.2,8.8-3.1
				c1.8-0.6,3.7-0.8,5.5-1.6c4-1.7,8.3-2.1,12.6-1.7c3.8,0.4,7.6-0.3,11.3-0.4c2.2,0,4.3,0,6.5,0
				C695.6,986.2,695.6,986.5,695.6,986.8z"/>
		</g>
	</g>
	<g>
		<g>
			<path class="st18" d="M651.9,1294.4c3.3,21.2,5.6,41,7.3,60.9c1.6,19.9,2.6,39.8,3.1,61.3c0.3,13.6,0.6,27.2,0.7,41
				c0,3.4,0.1,6.9,0.1,10.3c0,3.4,0,6.9,0,10.3l0,5.2l-0.1,5.2c-0.1,3.5-0.1,6.9-0.2,10.4l-0.4,10.4l-0.4,5.3l-0.5,5.2
				c-0.7,7-1.7,13.9-2.8,20.7c-2.2,13.7-5,27.3-7.9,40.8c-2.8,13.5-5.8,26.9-8.2,40.3c-2.5,13.4-4.6,26.8-5.1,39.8
				c-0.2,6.5,0.1,12.9,1.4,18.7c0.7,2.8,1.5,5.5,2.9,8.2c1.2,2.7,2.9,5.4,4.6,8.1c3.5,5.3,7.6,10.4,11.9,15.2
				c4.4,4.9,9,9.6,13.8,14.1c6.8,6.3,14,12.4,21.4,18.1c7.4,5.7,15.1,11,23.1,15.8c4,2.4,8,4.7,12.1,6.7c4.1,2,8.2,3.8,12.3,5
				c2,0.7,4,1,5.8,1.3l3.4,0.3l3.5,0.3c4.7,0.3,9.5,0.6,14.2,0.8c35.5,1.6,71.2,2.3,106.8,2.6c35.6,0.2,71.3-0.1,106.9-1.3
				c17.8-0.6,35.6-1.5,53.3-2.7c17.7-1.2,35.4-2.8,52.9-5.2l6.6-0.9l3.3-0.5l3.3-0.5l6.5-1.1c2.2-0.3,4.3-0.8,6.5-1.2
				c2.1-0.4,4.3-0.8,6.4-1.3l6.3-1.5c2.1-0.5,4.2-1.1,6.2-1.7c2.1-0.6,4.1-1.1,6.2-1.9c16.7-5.5,32.8-12.2,47.3-21.3
				c5.5-3.5,10.7-7.3,15.6-11.3c4.9-4.1,9.5-8.3,13.9-12.8c8.8-8.9,16.9-18.3,24.8-27.7c7.9-9.4,15.6-18.9,23.3-28.2
				c7.7-9.3,15.4-18.6,23.2-27.7c15.7-18.3,31.6-36.4,48.8-54.6c8.6-9.1,17.3-18.3,26.3-27.7c2.2-2.4,4.5-4.7,6.8-7.1
				c2.3-2.3,4.7-4.7,7-7.1c4.7-4.7,9.5-9.5,14.4-14.4c4-4,8-8,12.1-12.1c4.2-3.9,8.5-7.8,12.7-11.7c4.2-3.8,8.5-7.7,12.6-11.4
				c1-0.9,2.1-1.9,3.1-2.8c1.1-0.9,2.1-1.8,3.2-2.7c2.1-1.8,4.2-3.5,6.3-5.3c4.2-3.4,8.3-6.8,12.3-10.1c4-3.2,8.1-6.1,11.9-9
				c7.5-5.8,14.8-10.6,21.1-14.6c2.7-1.6,4.9-2.8,6.6-3.6c1.7-0.8,3-1.1,3.6-1.1c0.6,0.1,0.7,0.5,0.1,1.4c-0.3,0.4-0.8,0.9-1.4,1.6
				c-0.6,0.6-1.4,1.4-2.3,2.2c-1.4,1.3-2.8,2.6-4.3,3.9c-1.4,1.4-2.9,2.8-4.4,4.2c-1.5,1.4-3,2.9-4.7,4.4c-0.8,0.7-1.6,1.5-2.5,2.2
				c-0.8,0.8-1.7,1.6-2.5,2.4c-3.8,3.5-7.5,6.9-11.4,10.4c-1.9,1.7-3.8,3.5-5.7,5.3c-1.9,1.8-3.8,3.6-5.6,5.3
				c-3.8,3.5-7.6,7.1-11.4,10.6c-3.8,3.6-7.5,7.3-11.4,11c-3.8,3.7-7.7,7.4-11.5,11.1c-1.9,1.9-3.9,3.7-5.8,5.6
				c-1.9,1.9-3.8,3.8-5.7,5.8c-7.7,7.7-15.5,15.6-23.5,23.6c-14.7,15.3-28.5,29.5-42.2,43.8c-13.6,14.4-26.9,29.1-40.6,45.2
				c-12.7,14.9-25.1,30.1-37.5,45.4c-6.2,7.6-12.5,15.3-18.9,22.8c-6.5,7.5-13.1,15-20.4,22.1c-7.2,7.1-15,13.8-23.4,19.6
				c-8.4,5.9-17.4,10.9-26.6,15.2c-9.2,4.3-18.6,7.9-28.1,11.1c-1.2,0.4-2.4,0.8-3.6,1.2l-3.7,1.1c-2.5,0.7-4.9,1.5-7.4,2l-7.4,1.8
				l-7.4,1.5c-27.7,5.4-55.6,8-83.4,9.9c-34.2,2.2-68.3,3.2-102.4,3.5c-34.1,0.4-68.2,0.1-102.4-0.7c-14.4-0.3-28.7-0.7-43.1-1.3
				c-7.2-0.3-14.4-0.6-21.6-0.9c-3.6-0.2-7.2-0.4-10.9-0.7c-1.8-0.1-3.7-0.3-5.6-0.5l-3.2-0.5l-3-0.7c-7.8-2.2-14.6-5.4-21.2-8.9
				c-6.6-3.5-12.9-7.4-19-11.4c-12.2-8.2-23.8-17.2-34.6-27.1c-3.5-3.2-7.5-7-11.6-11.4c-4.2-4.4-8.6-9.4-12.9-15.2
				c-1.1-1.5-2.2-2.9-3.2-4.5c-0.5-0.8-1.1-1.6-1.6-2.4c-0.5-0.8-1-1.7-1.5-2.5l-0.8-1.3l-0.7-1.3c-0.5-0.9-1-1.8-1.4-2.7
				c-0.9-1.9-1.8-3.8-2.5-5.9c-0.4-1-0.8-2.1-1.1-3.2c-0.3-1.1-0.6-2.2-0.9-3.3c-0.2-1.1-0.4-2.2-0.6-3.3c-0.2-1.1-0.3-2.2-0.4-3.3
				c-0.5-4.4-0.7-8.8-0.5-13.2c0.2-8.9,1.3-17.8,2.7-26.7c1.4-9,3.3-18,5.2-27.1c3.9-18.2,8.4-36.6,12.3-54.9
				c1.9-9.1,3.6-18.2,5-27.2c0.7-4.5,1.2-8.9,1.7-13.3c0.2-2.2,0.4-4.4,0.5-6.6c0.1-2.2,0.2-4.4,0.4-6.6c0.3-4.3,0.4-8.7,0.5-12.9
				c0.1-2.1,0.1-4.2,0.2-6.3c0-2.1,0-4.2,0.1-6.3c0.1-8.3,0-16.2,0-23.8c-0.3-30.3-1.1-54.4-1.5-66.6c-0.5-17-0.5-31.6-0.3-46
				C651.1,1324.9,651.5,1310.7,651.9,1294.4z"/>
		</g>
	</g>
	<g>
		<g>
			<path class="st17" d="M749.5,965.4c-4.3,12.7-10.2,22.1-18.1,32.2c-10.1,12.8-19.4,26.4-28.8,40c-9.4,13.6-18.7,27.2-28.8,40.1
				c-7.1,9.1-14.3,18-21.3,27.1l-19.4,25.6c-6.5,8.5-13.2,16.8-19.4,25.3c-3.1,4.3-6.1,8.5-8.8,12.9c-2.8,4.3-5.1,8.7-6.8,13.2
				c-1.7,4.5-2.7,9-3,13.9c-0.2,1.2-0.1,2.5-0.1,3.7c0,1.2-0.1,2.5,0,3.7l0.1,3.8l0.3,3.9c0.7,7.8,1.6,15.5,2.8,22.4
				c1.2,7,2.9,13.2,5.9,18.6c2.9,5.4,7.2,10,12.6,14.3c2.7,2.1,5.6,4.2,8.7,6.1c3.1,2,6.4,3.9,9.9,5.8c11.5,6.2,24,13.7,31.1,19.3
				c3,2.3,2.9,4.6-0.4,4.5c-2.5-0.1-5.1-0.1-7.9-0.8c-6.1-1.5-12-3.6-18-6.3c-5.9-2.6-11.8-5.7-17.9-9.3c-5.7-3.4-10.7-7-15.5-11.3
				c-2.4-2.1-4.6-4.5-6.8-7c-2.1-2.6-4.2-5.3-6-8.4c-3.4-5.6-5.6-11.9-7-18c-1.4-6.1-2.3-12.1-3-18c-0.4-2.9-0.7-6-1.1-8.9
				c-0.3-3-0.6-6-0.7-9.2c-0.3-6.2-0.2-12.8,1.2-19.3l0.9-3.4c0.1-0.6,0.3-1.1,0.4-1.7l0.6-1.7l1.2-3.3c0.4-1.1,0.9-2.1,1.4-3.2
				c1.9-4.2,4.1-8,6.5-11.7c5.8-9,12.1-17.1,18.4-25.2l9.5-12.1l9.3-12.1l31.2-41c6.8-8.9,21.2-27.4,35-45.2
				c13.7-17.9,26.8-34.9,31.4-40.7C735.3,976,741.6,971.6,749.5,965.4z"/>
		</g>
	</g>
	<g>
		<g>
			<g>
				<g>
					<path class="st18" d="M1643.7,583.6c-1.3-5.1-2.4-9.6-3.2-14.1c-0.4-2.3-0.7-4.5-1.1-6.8c-0.2-1.2-0.3-2.3-0.4-3.5
						c-0.1-1.2-0.3-2.4-0.4-3.6c-0.7-6.2-1.8-12.4-3.5-18.5c-0.4-1.5-0.8-3.1-1.3-4.6l-1.5-4.5c-0.9-3-2.2-6-3.3-8.9
						c-4.7-11.8-10.4-23-16.2-34.1l-1.5-2.9c-0.5-1-1.1-1.9-1.6-2.9l-3.3-5.8c-1-1.9-2.3-3.8-3.5-5.6l-3.6-5.6
						c-9.3-13.6-20-26.3-31.6-38c-1.5-1.5-2.8-3-4.4-4.4l-4.5-4.2l-4.5-4.2l-1.1-1.1l-1.2-1l-2.4-2c-3.2-2.7-6.3-5.4-9.5-8l-9.9-7.5
						c-2.5-1.9-5-3.6-7.5-5.4c-2.5-1.7-4.8-3.4-7.2-5c-2.3-1.7-4.7-3.1-7.1-4.7c-2.4-1.5-4.7-3-7.1-4.5c-1.2-0.7-2.4-1.5-3.5-2.2
						c-1.2-0.7-2.4-1.4-3.6-2.1c-2.4-1.4-4.9-2.8-7.4-4.3c-1.3-0.7-2.5-1.4-3.8-2.2c-1.3-0.7-2.6-1.5-3.9-2.2
						c-2.7-1.4-5.4-2.8-8.3-4.3c-2.3-1.2-4.7-2.5-6.9-3.9c-1.1-0.7-2.3-1.4-3.4-2c-1.1-0.7-2.2-1.4-3.3-2c-4.3-2.7-8-5.5-10.7-7.9
						c-2.2-2-2.1-3.9,0.5-3.8c2,0,4.1,0.1,6.3,0.6c4.8,1.2,9.5,2.9,14.1,4.9c4.6,2.2,9.1,4.6,13.9,7.1c4.5,2.3,8.5,4.8,12.5,7.3
						c2,1.2,4,2.5,6.1,3.7c1,0.6,2.1,1.2,3.1,1.9c1,0.6,2.1,1.3,3.2,2l12,7.3c3.9,2.5,7.8,5.2,11.7,7.8l2.9,2l1.5,1l1.4,1l5.7,4.2
						l5.7,4.2c1.9,1.4,3.7,2.9,5.5,4.4c2.6,2.1,5.1,4.2,7.7,6.3c2.5,2.2,4.9,4.4,7.4,6.7c11.8,11.3,22.8,23.4,32.7,36.4
						c8.3,11,16,22.5,22.6,34.7c1,2,2.4,4.5,3.9,7.5c1.4,3,3.1,6.4,4.7,10.1c1.5,3.8,3.3,7.7,4.7,11.9c0.7,2.1,1.6,4.2,2.2,6.4
						c0.7,2.2,1.4,4.3,2,6.5c2.5,8.7,4.5,17.4,5.7,24.6c0.5,3.6,1,6.9,1.3,9.6c0.3,2.7,0.5,4.9,0.5,6.4c0.3,4.1-0.2,7.7-0.9,11.1
						C1646.3,576.5,1645.2,580,1643.7,583.6z"/>
				</g>
			</g>
			<g>
				<g>
					<path class="st18" d="M1609.9,468.7c-3.9-4.3-8.2-8-12.4-11.5c-1.1-0.9-2.1-1.7-3.2-2.6c-1-0.9-2.2-1.6-3.2-2.5
						c-1.1-0.8-2.1-1.6-3.2-2.5l-3.3-2.4c-2.2-1.6-4.3-3.2-6.5-4.7c-2.2-1.5-4.4-3.1-6.7-4.6c-2.3-1.5-4.6-3-6.9-4.6
						c-0.6-0.4-1.2-0.8-1.7-1.2c-0.6-0.4-1.2-0.7-1.8-1.1c-1.2-0.8-2.4-1.5-3.7-2.3l-4.7-2.9c-1.6-1-3.2-1.8-4.8-2.7l-4.8-2.7
						c-1.6-0.9-3.2-1.8-4.9-2.6c-3.3-1.6-6.7-3.2-10-4.8l-2.5-1.2l-2.6-1.1l-5.1-2.2c-13.7-5.9-27.9-10.7-42.2-15.1
						c-28.7-8.7-58.1-14.8-87.2-20.1l-7.7-1.4l-3.9-0.7l-3.9-0.6l-15.5-2.4c-10.3-1.8-20.7-2.8-31.1-4l-7.3-0.8l-3.6-0.4l-3.6-0.3
						l-14.6-1.2l-14.6-1.2c-4.9-0.3-9.8-0.5-14.6-0.8l-14.6-0.8l-7.3-0.4c-2.4-0.1-4.9-0.1-7.3-0.2l-29.3-0.7l-3.7-0.1l-3.7,0
						l-7.3,0l-14.7,0l-14.7,0.1c-4.9,0.1-9.8,0.3-14.7,0.4l-29.3,0.9c-9.8,0.5-19.5,1.1-29.3,1.6c-7.4,0.5-14.6,0.8-21.6,1.3
						c-7,0.6-13.9,1.1-20.6,1.7c-13.5,1.2-26.6,2-39.6,3.5c-13.1,1.4-26.2,2.8-39.7,4.2c-13.5,1.7-27.5,3.5-42.4,5.4
						c-3.1,0.4-6.2,0.8-9.3,1.1l-4.7,0.5c-1.6,0.2-3.1,0.4-4.7,0.6c-6.2,0.7-12.3,1.4-18.2,1.9c-11.8,1.1-22.5,1.8-30.7,2
						c-6.8,0.2-8.6-1.4-3.3-3.2c4-1.4,8.3-2.9,13.3-4.1c11-2.6,22.3-4.7,33.8-6.6c2.9-0.5,5.8-1,8.7-1.4c2.9-0.4,5.9-0.8,8.9-1.2
						c6-0.8,12-1.5,18.2-2.3c5.8-0.7,11.4-1.4,16.9-2.1c5.5-0.6,10.9-1.3,16.4-1.7c10.9-1,21.8-2,33.4-3.3
						c5.4-0.6,10.8-1.2,16.1-1.8l16.2-1.4l32.4-2.8l32.4-2.1c5.4-0.3,10.8-0.7,16.2-1l16.3-0.6c7.6-0.3,15.3-0.6,22.9-0.9
						c3.8-0.2,7.6-0.2,11.5-0.2c3.8,0,7.6,0,11.5-0.1c37.5-0.3,75.1,1.3,112.6,4.2l11.8,1l5.9,0.5c2,0.2,3.9,0.3,5.9,0.6l23.6,2.7
						l5.9,0.7l5.9,0.9l11.8,1.7l11.8,1.7c3.9,0.7,7.8,1.4,11.7,2.1c2.5,0.5,5.4,1,8.6,1.6c1.6,0.3,3.3,0.6,5,0.9
						c0.9,0.2,1.8,0.3,2.7,0.5c0.9,0.2,1.8,0.4,2.7,0.6c3.7,0.8,7.7,1.7,11.9,2.6c2.1,0.5,4.2,0.9,6.4,1.4c2.2,0.5,4.4,0.9,6.7,1.6
						c4.5,1.2,9.2,2.4,14,3.6c2.4,0.6,4.8,1.3,7.2,1.9c2.4,0.7,4.9,1.5,7.3,2.2c4.9,1.5,9.9,3,14.9,4.5c4.9,1.7,9.9,3.4,14.8,5.1
						c19.6,7.1,38.3,15.3,53.3,23.3c15,7.9,26.1,15.6,31.7,19.5c7.7,5.7,13.8,11.1,19.1,17.2c0.7,0.8,1.4,1.5,2,2.3
						c0.6,0.8,1.3,1.6,1.9,2.4c0.6,0.8,1.3,1.6,1.9,2.4c0.6,0.8,1.2,1.7,1.8,2.5c0.6,0.8,1.2,1.7,1.8,2.5c0.6,0.9,1.1,1.8,1.7,2.7
						C1607.8,464.8,1608.9,466.8,1609.9,468.7z"/>
				</g>
			</g>
			<g>
				<g>
					<path class="st18" d="M1486.1,391.9c-5.8,5.9-11.8,10.7-18.1,14.9c-6.3,4.3-12.9,8-20.2,11.6c-18.5,9.2-37.2,18.6-56.2,27.3
						c-19,8.8-38.4,16.9-58,23.5l-5.2,1.8l-5.2,1.6l-10.4,3.3c-3.5,1.1-7,2.1-10.5,3.1l-10.5,3.1c-52.1,15.4-105.5,26-159.2,33.3
						c-5.1,0.6-10.1,1.2-14.9,1.8c-2.4,0.3-4.8,0.6-7.2,0.8c-2.4,0.3-4.7,0.6-7.1,0.8c-4.7,0.4-9.3,0.8-13.9,1.3
						c-4.6,0.4-9.1,0.9-13.7,1.1c-4.5,0.3-9.1,0.6-13.7,0.9c-4.6,0.3-9.2,0.7-14,0.8c-4.7,0.2-9.5,0.4-14.5,0.6
						c-2.5,0.1-5,0.2-7.5,0.3c-2.5,0.1-5.1,0.1-7.7,0.1c-4.3,0.1-8.7,0-13-0.1c-4.3-0.2-8.6-0.3-12.7-0.7
						c-8.2-0.8-15.6-1.9-21.1-2.9c-4.6-0.9-5.6-2.7-1.8-3.7c2.9-0.7,6-1.6,9.5-1.9c15.5-1.4,31.3-1.5,48.3-1.8
						c8-0.3,15.5-0.4,22.9-0.5c7.5-0.2,14.9-0.6,22.9-1.2c29.5-2.5,58.9-6.2,88-11.2c5.1-0.9,10.3-1.8,15.4-2.7
						c5.1-1,10.2-1.9,15.3-2.9c25.1-4.7,50.1-10.2,74.9-16.8c20.8-5.6,41.4-12,61.8-19c3.3-1.1,7.5-2.6,12.4-4.3
						c4.9-1.8,10.4-3.8,16.3-6c3-1.1,6-2.3,9.1-3.5c3.1-1.2,6.3-2.4,9.6-3.7c3.2-1.3,6.5-2.6,9.8-4c3.3-1.3,6.5-2.8,9.8-4.1
						c26-11,50.1-23.3,58.2-27.5c2.8-1.5,5.5-2.8,8.1-3.9c2.6-1.2,5.1-2.2,7.7-3.2C1475.2,396.1,1480.3,394.3,1486.1,391.9z"/>
				</g>
			</g>
			<g>
				<g>
					<path class="st18" d="M1695.8,588.5c4,5.9,7,11.7,9.4,17.7c2.4,6,4.3,12.2,5.9,19c4,17.1,8.2,34.4,11.8,51.9
						c3.5,17.5,6.4,35.2,7.5,52.9c0.8,12.4,1,24.9,1,37.4c0.1,46.4-6.4,93.1-21.3,137.3c-5.8,16.7-12,31.1-19.2,45.1
						c-7.3,13.9-15.5,27.4-26.1,42c-2.2,3-4.6,5.9-7,8.7c-2.5,2.8-5.1,5.4-7.6,7.9c-2.6,2.4-5.1,4.7-7.5,6.7c-2.4,2-4.7,3.6-6.7,5
						c-3.3,2.3-5.2,1.6-3.7-1.4c1.1-2.3,2.3-4.8,4-7.3c7.5-10.9,16-21,24.3-32.8c7.7-11,14.4-20.7,20.5-32.7
						c11.3-22.2,19.8-45.7,25.8-69.9c2.1-8.5,3.9-17.1,5.5-25.7c4.1-21.1,6.6-42.6,7.4-64.2c0.7-18.2,0.3-36.5-1-54.7
						c-0.4-5.9-1.1-15.1-2.3-25.8c-1.2-10.7-2.9-22.8-4.9-34.6c-2-11.8-4.3-23.3-6.5-32.8c-2.1-9.5-4-16.9-5-20.7
						c-1.3-5.3-2.1-9.9-2.7-14.5C1696.9,598.4,1696.5,593.8,1695.8,588.5z"/>
				</g>
			</g>
			<g>
				<g>
					<path class="st18" d="M1713.1,650.7c0.7,4.2,0.9,8.4,1,12.4c0,4-0.2,8-0.6,11.9c-0.5,3.9-1,7.8-1.9,11.7
						c-0.4,2-0.8,3.9-1.3,5.9c-0.5,2-1.1,4-1.7,6l-1.1,3.9l-1.2,3.8c-0.8,2.6-1.5,5.2-2.4,7.7c-0.8,2.6-1.7,5.1-2.5,7.7
						c-0.4,1.3-0.8,2.6-1.3,3.8l-1.4,3.8c-0.9,2.5-1.8,5.1-2.7,7.6l-2.9,7.6c-1,2.5-1.9,5.1-3,7.6l-3.2,7.5
						c-8.6,19.9-18.9,39.2-31,57c-2.2,3.1-4.2,6.3-6.5,9.3l-6.8,9.1c-4.4,6.1-9.4,11.8-14.1,17.8c-17.8,21.8-37.6,41.9-58.6,60.5
						c-21,18.6-43.2,35.8-66.5,51.5c-2.2,1.5-4.3,3-6.5,4.5c-1.1,0.8-2.1,1.4-3.2,2.1c-1.1,0.7-2.2,1.4-3.2,2
						c-4.3,2.7-8.4,5.3-12.5,7.9c-2.1,1.3-4.1,2.6-6.1,3.9c-2,1.3-4.1,2.4-6.2,3.6c-4.1,2.4-8.2,4.7-12.2,7.1
						c-2,1.2-4.1,2.4-6.1,3.5c-1,0.6-2,1.2-3.1,1.8c-1,0.6-2.1,1.1-3.1,1.7c-4.2,2.2-8.4,4.5-12.8,6.7c-4.3,2.3-8.7,4.6-13.2,7
						c-4.6,2.2-9.3,4.5-14.1,6.8c-15.8,8-34.2,13.7-45.5,16.6c-4.7,1.1-6.4-0.1-3.2-2.6c2.4-1.9,5-4,8.1-5.8
						c6.9-4.1,14.2-7.6,21.6-11.2c7.4-3.7,15-7.4,22.9-11.2c1.9-0.9,3.7-1.7,5.5-2.6c1.8-0.9,3.5-1.8,5.3-2.7
						c3.5-1.8,6.9-3.5,10.4-5.2c3.4-1.7,6.9-3.5,10.4-5.2c0.9-0.4,1.7-0.9,2.6-1.3c0.9-0.5,1.7-1,2.6-1.5c1.7-1,3.5-2,5.2-3.1
						l9.8-5.8l4.9-2.9c1.6-1,3.3-1.9,4.9-3l19.2-12.4c1.6-1,3.2-2,4.8-3.1l4.7-3.3l9.3-6.6l4.7-3.3c1.5-1.1,3.1-2.2,4.6-3.3l9-6.9
						l6.4-4.9c2.1-1.6,4.3-3.2,6.3-5c4.1-3.4,8.2-6.8,12.4-10.2c20.2-16.7,39.4-34.6,57-54.1l10.9-12.5c3.5-4.2,6.9-8.6,10.4-12.9
						l2.6-3.2c0.9-1.1,1.6-2.2,2.5-3.3l4.9-6.7c1.6-2.2,3.3-4.4,4.9-6.7l4.6-6.9c1-1.5,2.2-3.2,3.4-5c0.6-0.9,1.3-1.9,2-2.9
						c0.6-1,1.3-2.1,2-3.3c1.4-2.2,2.9-4.7,4.5-7.2c0.8-1.3,1.6-2.6,2.4-3.9c0.8-1.4,1.6-2.7,2.4-4.1c1.6-2.8,3.3-5.7,5-8.7
						c0.9-1.5,1.6-3,2.5-4.6c0.8-1.6,1.6-3.1,2.4-4.7c3.4-6.3,6.3-12.9,9.5-19.5c5.9-13.2,10.9-26.4,14.5-37.6
						c0.9-2.8,1.7-5.4,2.5-7.9c0.8-2.5,1.4-4.8,2-6.9c1.2-4.2,2-7.6,2.6-9.9c1.6-6.4,3.2-11.8,4.9-17.1
						C1709.8,662.2,1711.6,657,1713.1,650.7z"/>
				</g>
			</g>
			<g>
				<g>
					<path class="st18" d="M1702.4,706.1c-1.3,3.4-3,6.5-4.8,9.4c-0.9,1.5-1.9,2.8-2.8,4.2c-1,1.4-2,2.7-3.1,4
						c-1,1.3-2.2,2.5-3.3,3.8c-1.1,1.2-2.3,2.4-3.5,3.6c-1.2,1.2-2.5,2.3-3.8,3.5c-1.3,1.1-2.7,2.2-4,3.4
						c-7,5.7-14.2,11.2-21.5,16.5c-1.8,1.3-3.6,2.7-5.5,4l-5.6,3.9l-2.8,2l-2.8,1.9l-5.7,3.8c-15.3,9.9-31.3,18.9-47.7,26.2
						c-2.9,1.3-5.8,2.6-8.7,3.8l-8.8,3.6c-5.8,2.5-11.8,4.6-17.7,6.9c-22,8.4-44.4,15.6-67.1,21.9l-17,4.6
						c-5.7,1.5-11.4,2.8-17.1,4.2c-2.9,0.7-5.7,1.4-8.6,2.1l-8.6,1.9c-5.7,1.2-11.4,2.6-17.2,3.8c-8.7,1.7-16.9,3.4-24.9,5
						c-8,1.4-15.8,2.8-23.5,4.1c-15.6,2.5-31.2,5-49.1,7.2c-3.7,0.5-7.4,0.9-11.2,1.2c-3.7,0.3-7.4,0.4-11,0.4
						c-7.1,0.1-13.6-0.1-18.5-0.5c-4.1-0.4-5.1-2.1-2-3.5c2.4-1.1,4.9-2.2,8-3c6.6-1.7,13.3-2.8,20.1-3.8c6.9-1,13.9-2,21.2-2.9
						c3.4-0.5,6.8-0.8,10-1.2c3.3-0.4,6.5-0.8,9.7-1.2c6.4-0.8,12.8-1.6,19.7-2.8c25.2-4.6,50.3-9.7,75.2-15.8
						c4.4-1.1,8.7-2.3,13.1-3.4l6.5-1.7c2.2-0.5,4.4-1.1,6.5-1.7l16-4.3c2.7-0.7,5.3-1.5,8-2.2l8-2.3l8-2.3l7.9-2.5
						c5.2-1.7,10.5-3.3,15.7-5.2l13.1-4.7l13-5.1c4.4-1.6,8.6-3.5,12.9-5.3l6.4-2.7l6.3-2.9c1.4-0.6,2.9-1.3,4.7-2.1
						c1.7-0.8,3.6-1.6,5.6-2.6c2-1,4.1-2,6.4-3.1c2.2-1.1,4.6-2.2,7-3.5c4.8-2.6,10-5.1,15.2-8.1c2.6-1.5,5.3-2.9,7.9-4.5
						c2.6-1.6,5.2-3.1,7.8-4.7c10.3-6.4,20.1-13.1,28-19c7.8-5.9,13.7-11,16.6-13.6c1-0.9,2-1.7,3-2.6c1-0.8,2-1.6,2.9-2.4
						c1.9-1.5,3.8-2.9,5.7-4.4c0.9-0.7,1.9-1.4,2.8-2.1c0.9-0.7,1.9-1.4,2.9-2.2C1698.4,709.5,1700.4,708,1702.4,706.1z"/>
				</g>
			</g>
			<g>
				<g>
					<path class="st18" d="M1601.1,598c-5.2,2.7-9.9,5-14.7,6.9c-4.8,2-9.6,3.6-14.9,5.3c-6.7,2.1-13.3,4.8-19.7,7.8
						c-3.2,1.5-6.4,3.1-9.6,4.8c-3.1,1.7-6.3,3.4-9.3,5.2c-12.3,7.2-24.1,15.2-35.6,23.1c-2,1.4-4,2.9-6,4.3c-2,1.5-4.1,2.8-6,4.4
						l-5.9,4.6l-2.9,2.3c-1,0.8-1.9,1.6-2.8,2.4c-14,12-27.2,25.1-39.2,39.2c-12,14.1-22.7,29.3-32.3,45.1c-1.8,3-3.5,6-5.2,8.8
						c-0.9,1.4-1.6,2.9-2.4,4.3c-0.8,1.4-1.5,2.9-2.3,4.3c-1.5,2.8-3,5.6-4.5,8.4c-1.4,2.8-2.7,5.6-4.1,8.4c-1.3,2.8-2.7,5.6-4,8.5
						c-0.7,1.4-1.3,2.9-1.9,4.3c-0.6,1.5-1.2,2.9-1.9,4.4c-1.3,3-2.5,6-3.8,9.1c-0.3,0.8-0.6,1.6-1,2.3c-0.3,0.8-0.6,1.6-0.9,2.4
						c-0.6,1.6-1.2,3.3-1.8,4.9c-1,2.7-2.1,5.5-3.3,8.2c-0.6,1.3-1.2,2.7-1.8,4c-0.6,1.3-1.2,2.7-1.7,3.9c-2.3,5.1-4.8,9.7-6.9,13
						c-1.8,2.8-3.7,3-3.9,0.1c-0.1-2.2-0.3-4.4,0-6.9c0.4-2.7,0.9-5.4,1.5-8.1c0.6-2.7,1.3-5.4,2.2-8.1c1.8-5.4,3.8-10.8,5.9-16.4
						c0.5-1.3,1-2.6,1.6-3.9c0.6-1.3,1.1-2.5,1.7-3.7c1.1-2.4,2.2-4.8,3.3-7.2c0.6-1.2,1.1-2.4,1.7-3.6c0.3-0.6,0.5-1.2,0.8-1.8
						c0.3-0.6,0.6-1.2,0.9-1.8c1.2-2.4,2.4-4.9,3.6-7.4l3.3-7.1l0.8-1.8l0.9-1.7l1.8-3.5l3.6-7c1.2-2.3,2.4-4.7,3.7-6.9l7.9-13.6
						l8.5-13.3c1-1.6,2.1-3.1,3.1-4.6l3.2-4.5l3.2-4.5c0.5-0.7,1.1-1.5,1.6-2.2l1.7-2.2l8.7-10.6l9.1-10.2
						c6.3-6.6,12.6-13.1,19.3-19.3c11.3-10.4,23.1-20.2,35.6-29.1c2.1-1.4,4.7-3.2,7.8-5.2c0.8-0.5,1.6-1,2.4-1.6
						c0.8-0.5,1.7-1,2.6-1.6c1.8-1.1,3.6-2.2,5.5-3.4c1.9-1.2,3.9-2.3,6-3.5c2.1-1.2,4.2-2.4,6.3-3.6c4.4-2.3,8.8-4.7,13.4-6.8
						c18-8.9,36.4-14.9,42.6-16.6c2.2-0.6,4.3-1,6.3-1.4c2-0.3,4-0.5,5.9-0.5C1592.8,597.4,1596.8,597.6,1601.1,598z"/>
				</g>
			</g>
		</g>
		<g>
			<g>
				<path class="st18" d="M662.3,524.9c6.2-3,12.4-4.8,18.5-5.9c6.2-1.1,12.5-1.5,19.3-1.3c8.6,0.2,17.2,0.6,25.8,1.4
					c8.6,0.8,17.2,1.9,25.8,3.5c8.6,1.5,17.1,3.7,25.4,6.3c2.1,0.7,4.1,1.4,6.2,2.1c2.1,0.7,4.1,1.6,6.1,2.3c4.1,1.5,8,3.5,11.9,5.3
					c10.9,5.5,21.2,12.1,31.1,19.2l3.4,2.5l1.7,1.3c0.6,0.4,1.1,0.9,1.7,1.3l6.6,5.4c2.2,1.8,4.2,3.8,6.3,5.7c1,1,2.1,1.9,3.1,2.9
					l3,3l3,3c1,1,2,2,2.9,3.1l5.7,6.3l10.9,12.4c14.6,16.4,29.8,32.2,46.4,46.4c0.8,0.7,1.5,1.4,2.3,2c0.8,0.6,1.6,1.3,2.3,1.9
					c1.6,1.3,3.1,2.5,4.6,3.8c3,2.5,6,5,9,7.2c3,2.3,6,4.5,8.9,6.7c3,2.1,6,4.1,9,6.2c12.1,8,24.8,15.3,40,21.9
					c0.8,0.3,1.6,0.7,2.3,1c0.8,0.3,1.6,0.7,2.4,1c1.6,0.7,3.2,1.4,4.7,2.1c1.5,0.7,3.1,1.4,4.7,2.1c1.5,0.7,3.1,1.4,4.6,2.1
					c6,2.7,11.5,5.2,15.6,7.4c3.4,1.8,3.7,3.8,0.4,4c-2.5,0.1-5.1,0.3-8.1-0.2c-12.8-1.8-25.4-6.4-38.3-12.6c-3-1.5-5.9-3-8.7-4.5
					c-2.8-1.5-5.5-3.2-8.2-4.8c-1.3-0.8-2.7-1.6-4-2.4c-1.3-0.9-2.6-1.7-4-2.6c-1.3-0.9-2.7-1.7-4.1-2.6c-1.4-0.9-2.8-1.7-4.2-2.7
					c-20.7-13.5-39.9-29.3-57.7-46.2l-4.7-4.5l-2.4-2.2c-0.8-0.8-1.5-1.5-2.3-2.3c-3-3.1-6-6.2-9-9.4l-2.7-2.9l-1.4-1.5l-1.3-1.5
					l-5.2-6l-10.4-11.9l-5.1-5.8c-0.4-0.5-0.8-1-1.3-1.4l-1.3-1.4l-2.7-2.7c-3.5-3.7-7.4-7.1-11.2-10.6c-1.6-1.4-3.3-2.7-5-4.1
					l-2.5-2l-1.3-1c-0.4-0.3-0.9-0.6-1.3-1c-3.5-2.5-6.9-5.2-10.6-7.5c-1.8-1.2-3.6-2.4-5.4-3.5l-5.6-3.3c-0.9-0.5-1.8-1.1-2.8-1.6
					l-2.9-1.5c-1.9-1-3.8-2-5.7-3c-5.1-2.4-12.9-6.2-22.5-9.6c-9.6-3.5-20.7-6.6-31.9-8.8c-11.2-2.2-22.3-3.5-31.5-4.1
					c-9.2-0.6-16.6-0.5-20.3-0.4c-5.2,0.1-9.7-0.2-14.1-0.6C672,525.6,667.5,525,662.3,524.9z"/>
			</g>
		</g>
	</g>
	<g>
		<path class="st21" d="M902.2,972.4c-5.4,7.8-8.5,17.5-8.5,28c0,25.4,18.5,46,41.3,46c22.8,0,41.3-20.6,41.3-46
			c0-6-1-11.7-2.9-16.9C946.4,975.5,921.2,972.9,902.2,972.4z"/>
	</g>
	<path class="st22" d="M918.1,973.3c-3.9,7.6-6.2,17-6.2,27.2c0,23.5,12.3,42.9,28.2,45.7c20.4-2.8,36.2-22.2,36.2-45.7
		c0-6-1-11.7-2.9-16.9C953.4,977.6,934.3,974.6,918.1,973.3z"/>
	<g>
		<g>
			<path class="st20" d="M1034,1031.6c6.8-0.2,13.6-0.6,20.4-0.5c2.8,0,5.6,0.7,8.3,1.6c0.8,0.3,1.6,1.9,1.8,3.1
				c0.1,0.5-1.2,1.4-1.8,2.1c-0.2,0.2-0.4,0.2-0.7,0.2c-6.5,1.3-12.9,3.3-19.4,3.8c-7,0.5-14,1.2-21,1.7c-7,0.5-14,0.9-21.1,0.7
				c-4-0.1-7.9,0.1-11.9,0.4c-4,0.4-7.9,0.7-11.9,1.1c-6.8,0.6-13.5,1.4-20.2,2c-3,0.2-6.1,0-9.1-0.6c-2.4-0.5-4.7-0.6-7-0.6
				c-2.3,0-4.7,0.2-7,0.5c-7.2,0.8-14.4,1.4-21.7,1.9c-0.7,0-2-0.8-2.2-1.5c-0.2-0.8,0.2-2.3,0.8-2.8c1.7-1.2,3.6-2.6,5.6-3
				c3.9-0.8,7.9-1.6,11.8-2.3c3.9-0.7,7.9-1.4,11.9-2c4.9-0.7,9.8-1.2,14.7-2.1c2.7-0.5,5.5-0.9,8.2-1.3c2.7-0.3,5.5-0.6,8.2-0.8
				c5.5-0.4,11-0.7,16.6-0.7c9.9,0,19.7-0.9,29.6-1.3l16.9-0.5C1034,1031.1,1034,1031.4,1034,1031.6z"/>
		</g>
	</g>
	<g>
		<g>
			<path class="st20" d="M889,984.9c1.4-3.2,2.6-6.4,4.3-9.4c0.7-1.2,2-2.2,3.4-3.1c0.4-0.3,2.1,0.1,3.3,0.4c0.5,0.2,1,1.1,1.5,1.7
				c0.1,0.1,0,0.3,0,0.4c-0.3,3.4,0.1,7.1-1,10.2c-1.2,3.3-2.2,6.7-3.3,10c-1.2,3.3-2.5,6.6-4.2,9.7c-1,1.8-1.7,3.6-2.4,5.5
				c-0.6,1.9-1.2,3.8-1.8,5.7c-1.1,3.2-1.9,6.6-2.9,9.8c-0.5,1.4-1.4,2.7-2.7,3.9c-2,1.8-2.9,4-3.5,6.2c-1,3.5-2.2,6.9-3.5,10.3
				c-0.1,0.3-1.2,0.6-2,0.5c-0.8-0.1-2.2-0.8-2.4-1.2c-0.7-1.2-1.5-2.5-1.5-3.5c0.2-2.1,0.5-4.1,0.8-6.1c0.3-2,0.6-4.1,1-6.1
				c0.5-2.5,1.3-4.9,1.6-7.4c0.2-1.4,0.5-2.8,0.8-4.2c0.4-1.4,0.8-2.7,1.2-4c0.9-2.7,2-5.3,3.3-7.8c2.4-4.5,3.9-9.3,5.9-13.9
				l3.5-7.9C888.6,984.7,888.8,984.8,889,984.9z"/>
		</g>
	</g>
	<g>
		<line class="st16" x1="954.5" y1="987.5" x2="933.7" y2="1007.5"/>
		<g>
			<path class="st16" d="M955.1,988.1c3.4,4.8,3.8,6.3,2.8,6.5c-2.6,0.5-0.8,5.6-2.9,6.5c-0.7,0.3-1.7,0.4-2.3,0.9
				c-2.3,1.8-4.8,3.3-6.5,5.8c-1.2,1.9-2.3,3.2-3.2,5.4c-0.4,0.9-2.8-0.2-5.4-2c-1.1-0.8-3.2-2.9-4.3-4.3c-0.8-1.1-1.8-2.3-2.2-3
				c-1.8-3-1.1-3.6-0.7-4.5c0.4-0.8,1.7-0.6,2-1.5c0.5-1.8,1.2-3.4,1.8-5c0.2-0.6,0.4-1.2,0.9-1.5c1.1-0.8,2.4-1.5,3.6-2.3
				c1-0.7,1.8-1.4,2.8-2.1c1.3-0.8,5.9-3,7-3.3C949.3,983.7,952.1,985.9,955.1,988.1z"/>
		</g>
	</g>
	<g>
		<g>
			<path class="st17" d="M1631.4,1069.6c-7.4,7.5-14.4,11.8-23.3,15.8c-11.2,5-21.8,11.6-31.9,18.7c-10.1,7.1-19.8,14.7-29.3,22.1
				c-6.7,5.2-13.2,10.6-19,16.7c-2.7,2.8-5.2,5.8-7.7,8.8c-2.4,3-4.6,6.2-6.7,9.4c-4.1,6.4-7.4,13.3-9.3,20.5
				c-1.9,7.2-2.5,14.6-1.4,21.8c0.1,0.9,0.3,1.9,0.4,2.9l0.5,3c0.3,2,0.7,3.9,1.1,5.9c0.4,2,0.8,3.9,1.2,5.9c0.4,2,0.9,3.9,1.3,5.8
				c2.8,11.8,6,21.9,9.5,32.3c1.7,5.2,3.6,10.4,5.1,16.5c0.7,3.1,1.3,6.5,1.3,10.2c0,3.7-0.6,7.7-1.9,11.4c-1,3.1-2.6,5.8-4.3,8.3
				c-0.9,1.2-1.7,2.4-2.7,3.4c-0.9,1.1-1.9,2.1-2.8,3c-3.8,3.7-7.7,6.4-10.8,8.1c-2.6,1.4-4.6,0.4-3.9-2.1c0.5-1.9,1-3.9,2-5.9
				c2.2-4.2,4.7-8,6.9-11.9l0.8-1.4c0.3-0.5,0.5-1,0.7-1.4c0.5-1,0.9-1.9,1.3-2.9c0.7-1.9,1.3-3.9,1.5-5.9c0.2-1.9,0.2-3.8,0-5.7
				c-0.2-2-0.5-3.9-0.9-6c-0.9-4.1-2.1-8.4-3.8-13c-3.1-8.4-6-17.1-8.5-25.9c-2.5-8.8-4.6-17.7-6.3-26.7l-0.9-4.7l-0.4-2.6
				c-0.1-0.9-0.3-1.8-0.3-2.6l-0.2-2.7c0-0.9,0-1.8-0.1-2.7c-0.1-1.8,0.1-3.5,0.2-5.3c0.8-8.7,3.3-17.1,6.9-24.7
				c1.8-3.8,3.8-7.5,6-11c2.2-3.5,4.6-6.9,7.1-10.1c8.5-10.8,18.4-20.3,28.9-28.7c3.4-2.7,8.8-6.8,15.3-11.3
				c6.5-4.4,14-9.2,21.6-13.5c15.1-8.7,30.1-15.7,35.3-17.9C1617.4,1070.1,1623.6,1069.9,1631.4,1069.6z"/>
		</g>
	</g>
	<g>
		<g>
			<path class="st17" d="M1579.6,1094.6c3.3-0.1,6.1,0.7,8.4,1.8c2.3,1.2,4.2,2.9,5.9,5c4.3,5.3,8.9,10.4,13.2,15.9
				c4.3,5.5,8.2,11.5,10.5,18.1l0.6,1.7l0.5,1.8l1,3.5l1.7,7.1c2.1,8.9,2.9,18,2.7,27c-0.1,9-1.4,18-3.2,26.7
				c-0.4,1.7-0.6,3.3-1,4.9c-0.4,1.6-0.8,3.1-1.2,4.6c-0.4,1.5-0.8,3-1.2,4.4c-0.5,1.4-0.9,2.8-1.4,4.3c-0.5,1.4-0.9,2.9-1.4,4.3
				c-0.5,1.4-1.1,2.8-1.7,4.3c-0.6,1.4-1.1,2.9-1.7,4.4c-0.6,1.5-1.3,3-2,4.6c-2.1,5.2-6.8,9.6-10.3,11.7c-1.5,0.9-3.5,0.1-4-1.6
				c-0.4-1.3-0.8-2.6-0.8-3.9c0.1-2.7,0.8-5.1,1.7-7.4c0.8-2.4,1.9-4.7,3-7.1c0.3-0.6,0.5-1.1,0.8-1.7c0.2-0.5,0.5-1.1,0.7-1.6
				c0.5-1.1,1-2.1,1.5-3.1c0.5-1,1-2.1,1.5-3.1c0.5-1.1,0.8-2.2,1.2-3.4l0.9-3.3c0.3-1.1,0.6-2.2,0.9-3.3l1.5-6.6l1.1-6.6
				c0.2-1.1,0.3-2.2,0.4-3.3l0.4-3.3c0.2-1.6,0.2-3.1,0.3-4.7c0.1-1.6,0.3-3.1,0.4-4.6c0.6-7.6,0.5-15.2-0.6-22.8
				c-1-6.3-2.6-12.5-4.8-18.6c-0.4-1-0.8-2.2-1.4-3.7c-0.6-1.4-1.3-3-2.1-4.8c-1.6-3.4-3.6-7.3-5.8-10.9c-2.2-3.6-4.6-7.1-6.8-9.8
				c-2.1-2.7-3.9-4.8-4.8-5.9C1581.5,1102.7,1581.2,1099.1,1579.6,1094.6z"/>
		</g>
	</g>
	<g>
		<g>
			<path class="st17" d="M1506,1161.1c2.8-3.7,5-4.2,7-3.2c2.6,1.2,5.4,1.5,8.3,1.9c2.9,0.4,5.9,0.9,8.3,2.4c1.7,1.1,3.3,2.4,5,3.5
				c6.3,4.1,11.8,9.4,16.9,15c2,2.1,3.5,4.2,5,6.3c0.7,1.1,1.4,2.2,2.2,3.3c0.7,1.2,1.4,2.4,2.2,3.7c0.6,1.1,0.7,2.4,0.5,3.7
				c-0.3,1.3-0.9,2.6-1.6,3.6c-0.7,0.9-2.6,1.6-4,1.5c-1-0.1-2.2-0.1-2.8-0.3c-1.4-0.5-2.2-1.2-2.9-1.9c-0.7-0.7-1-1.6-1.5-2.4
				c-0.5-0.8-0.7-1.6-1-2.4c-0.3-0.8-0.6-1.6-1.2-2.3c-2.3-2.6-4.7-4.9-7.3-7c-0.9-0.7-1.9-1.4-2.7-2.2c-2-2-4.1-4.1-6.4-5.8
				c-2-1.5-4.1-2.7-6.3-4c-1.4-0.8-4.4-2.6-7.4-4c-3-1.5-6-2.7-7-3.1C1507.6,1166.5,1507.2,1163.9,1506,1161.1z"/>
		</g>
	</g>
	<g>
		<g>
			<path class="st20" d="M909.8,977.9c-9.4-0.7-18.7-0.6-28.1-0.5c-3.8,0-7.7-0.6-11.5-1.3c-1.1-0.2-2.4-2-2.9-3.3
				c-0.2-0.6,1.5-1.8,2.5-2.7c0.2-0.2,0.6-0.2,1-0.3c4.6-1.1,9.2-2.2,13.9-3c4.7-0.9,9.4-1.5,14.1-1.5c10.1-0.1,20.3,0.2,30.4,1.3
				c10.1,1.1,20.2,2.9,29.9,5.8c11,3.3,22.2,6.1,33,10.1c9.2,3.4,18.5,6.9,27.1,11.6c1,0.5,1.9,1.1,2.9,1.6c0.9,0.6,1.8,1.2,2.7,1.9
				c1.8,1.3,3.5,2.7,5.1,4.2c2.4,2.4,5,4.6,7.7,6.5c2.7,2,5.4,4,8.1,5.9c2.1,1.5,4.1,3.1,6.2,4.7l3.1,2.4c1,0.8,2,1.7,2.9,2.6
				c1.9,1.7,3.9,3.4,5.8,5.2l5.5,5.5c0.7,0.7,1.1,2.6,0.7,3.4c-0.5,0.8-2.4,1.4-3.3,1.1c-2.7-0.9-5.6-1.9-7.8-3.6
				c-8.8-6.6-17.7-12.9-27.1-18.4c-1.5-0.8-2.9-1.7-4.4-2.5c-1.5-0.8-2.9-1.7-4.4-2.5l-4.5-2.3c-1.5-0.8-3-1.5-4.5-2.2
				c-3.5-1.5-6.9-3.1-10.3-4.4l-5.2-2.2c-1.7-0.7-3.5-1.4-5.2-2.1l-2.6-1.1c-0.9-0.4-1.7-0.7-2.6-1l-5.2-2.1c-1.7-0.7-3.5-1.3-5.3-2
				c-1.8-0.7-3.5-1.4-5.3-2c-3.2-1.1-6.4-2.2-9.6-3.1c-1.6-0.5-3.2-0.9-4.9-1.3l-4.9-1.2l-2.5-0.6l-2.5-0.5l-5-1
				c-3.3-0.5-6.7-1.2-10-1.7c-7.6-1.2-15.3-2.1-23.1-2.7C909.7,978.4,909.7,978.1,909.8,977.9z"/>
		</g>
	</g>
</g>
</svg>
