<?xml version="1.0" encoding="UTF-8"?>
<svg width="638px" height="638px" viewBox="0 0 638 638" version="1.1" xmlns="http://www.w3.org/2000/svg" xmlns:xlink="http://www.w3.org/1999/xlink">
    <!-- Generator: Sketch 52.1 (67048) - http://www.bohemiancoding.com/sketch -->
    <title>LOGO@3x</title>
    <desc>Created with Sketch.</desc>
    <g id="Page-1" stroke="none" stroke-width="1" fill="none" fill-rule="evenodd">
        <g id="LOGO">
            <circle id="Oval" fill="#000000" cx="319" cy="319" r="319"></circle>
            <g id="Path-3" transform="translate(158.000000, 123.000000)" fill="#FF0000" fill-rule="nonzero" stroke="#FF0000" stroke-width="10">
                <path d="M106.167364,72.2527286 C106.321735,82.2890084 106.575775,81.829927 106.575775,92.3413796 L106.574105,92.4988483 C105.68181,134.566601 99.774112,165.686244 81.2929514,222.086345 C75.0331153,241.189874 25.8886209,360.017155 13.4542149,388.885313 C11.8320867,392.651303 9.20209732,393.989259 9.27978707,392.242598 C9.35747683,390.495936 7.65765891,392.651303 9.27978707,388.885313 C44.1206453,307.997542 57.9093103,251.150742 67.4331194,222.086345 C85.4712856,167.038157 90.8634693,132.721301 91.728113,92.2624697 C91.7278478,88.459681 91.7083973,85.2621927 91.672332,82.5994822 C78.7436282,89.5447818 62.8257245,93.2725048 46.5070334,93.2725048 C19.1602806,93.2725048 0,74.1139812 0,45.4020991 C0,31.378884 6.16637617,19.5384426 16.58206,11.1563285 C25.3361157,4.1114244 36.6500181,0.0254478228 46.5070334,0.0254478228 C46.9666696,0.0254478228 47.2997886,0.0224058259 48.3513804,0.0102676323 C59.31433,-0.116274245 66.0900692,0.882055867 74.2200073,5.51250319 C82.7118481,10.3490741 89.7503299,18.4691482 95.1514153,30.3525513 C100.552501,42.2359544 99.4517706,39.5512561 100.615008,43.0734618 C101.230031,44.9357094 102.530842,49.7071692 103.760798,54.5626811 C108.497611,50.707949 113.254788,47.0930619 118.280597,43.5990648 C128.456051,36.5249781 138.658581,30.7321881 148.896772,26.5512262 C149.256477,26.4043339 149.629053,26.2509776 150.023831,26.0874103 C150.83843,25.7498994 154.629398,24.1578322 155.703004,23.7140581 C172.805023,16.6449526 187.113558,13.5883362 212.029492,13.5883362 C246.274844,13.5883362 280.567942,36.895139 299.121966,68.5760266 C313.288821,92.7658494 319.49497,118.406995 321.421268,149.615718 C326.140555,226.074769 301.729791,305.857579 257.978081,388.885313 C256.066498,392.512928 256.401343,393.90386 252.774167,391.992046 C249.14699,390.080233 250.862584,392.512928 252.774167,388.885313 C295.318081,308.149617 311.143288,224.108813 306.601817,150.530641 C304.806583,121.44533 299.121194,97.9557385 286.310223,76.0810816 C270.236009,48.6344538 240.519097,28.4377889 212.029492,28.4377889 C189.137472,28.4377889 176.740069,31.0861457 161.374247,37.4375956 C160.350423,37.8607923 156.567103,39.4496478 155.706533,39.8062055 C155.28939,39.9790393 154.893677,40.1419187 154.509503,40.2988036 C145.378608,44.0275801 136.097669,49.2971095 126.755252,55.7920593 C120.417103,60.1984098 114.493165,64.843499 108.424925,69.9966482 C108.162709,70.2193218 107.335686,70.9368843 106.260858,71.8673122 C106.231733,71.997441 106.012994,62.2164489 106.167364,72.2527286 Z M89.4978864,58.7452313 C88.2271615,53.8034386 86.8694686,48.7995112 86.5164969,47.7307365 C85.5542346,44.8170702 84.584844,42.4230693 83.5811865,40.324686 C83.0947161,39.3076047 81.8054341,36.8731569 81.6346858,36.4974785 C77.4768422,27.3494412 72.5233364,21.634738 66.8724046,18.4162212 C61.6440156,15.4383658 57.0425441,14.7603899 48.5227302,14.8587315 C47.4074714,14.8716046 47.046538,14.8749006 46.5070334,14.8749006 C40.0773837,14.8749006 32.0371565,17.7786007 25.8901631,22.7254482 C18.845056,28.3950608 14.8476593,36.0707101 14.8476593,45.4020991 C14.8476593,65.9121485 27.3597102,78.4230521 46.5070334,78.4230521 C62.9576349,78.4230521 78.7771317,74.0154595 90.0559848,66.2203802 C90.1301896,66.1690956 90.5336455,65.8272523 91.1339574,65.3117006 C90.7164064,63.5528372 90.1448414,61.2612105 89.4978864,58.7452313 Z" id="Path"></path>
            </g>
        </g>
    </g>
</svg>